<svg width="45" height="45" viewBox="0 0 45 45" fill="none" xmlns="http://www.w3.org/2000/svg">
<path fill-rule="evenodd" clip-rule="evenodd" d="M3.75 9.375H13.125C17.2671 9.375 20.625 12.7329 20.625 16.875C20.625 18.7118 19.9647 20.3944 18.8685 21.6984C21.0447 23.0112 22.5 25.3981 22.5 28.125C22.5 32.2671 19.1421 35.625 15 35.625H3.75V24.375V20.625V9.375ZM7.5 31.875V24.375H13.125H15C17.0711 24.375 18.75 26.0539 18.75 28.125C18.75 30.1961 17.0711 31.875 15 31.875H7.5ZM39.375 11.25H26.25V15H39.375V11.25ZM33.0709 31.875C35.0218 31.875 36.2207 31.476 36.8607 30.8756C37.1978 30.5593 37.3385 30.2074 37.3385 30H41.0885C41.0885 33.051 38.3449 35.625 33.0709 35.625C27.8524 35.625 24.375 32.2422 24.375 26.25C24.375 20.6886 27.3385 16.875 32.8125 16.875C38.2865 16.875 41.25 20.6886 41.25 26.25V28.125H28.2911C28.8002 30.7071 30.4641 31.875 33.0709 31.875ZM37.3399 24.375C36.8743 21.9192 35.3875 20.625 32.8125 20.625C30.2375 20.625 28.7507 21.9192 28.2851 24.375H37.3399ZM7.5 20.625V13.125H13.125C15.1961 13.125 16.875 14.8039 16.875 16.875C16.875 18.9461 15.1961 20.625 13.125 20.625H7.5Z" fill="white"/>
</svg>
