<svg width="45" height="45" viewBox="0 0 45 45" fill="none" xmlns="http://www.w3.org/2000/svg">
<path fill-rule="evenodd" clip-rule="evenodd" d="M7.5 3.75H37.5C39.5711 3.75 41.25 5.42893 41.25 7.5V37.5C41.25 39.5711 39.5711 41.25 37.5 41.25H7.5C5.42893 41.25 3.75 39.5711 3.75 37.5V7.5C3.75 5.42893 5.42893 3.75 7.5 3.75ZM7.5 7.5V37.5H37.5V7.5H7.5ZM20.8745 22.5082H24.375V33.75H28.125V22.5082H31.842V18.7582H28.125V16.875C28.125 15.8395 28.9645 15 30 15H31.875V11.25H30C26.8934 11.25 24.375 13.7684 24.375 16.875V18.7582H20.8745V22.5082Z" fill="#412393"/>
</svg>
