<svg width="45" height="45" viewBox="0 0 45 45" fill="none" xmlns="http://www.w3.org/2000/svg">
<path fill-rule="evenodd" clip-rule="evenodd" d="M18.7823 37.5068C18.7921 37.7372 18.7672 37.9619 18.7187 38.1894C18.6335 38.5892 18.4689 39.0122 18.2359 39.403C17.5736 40.5141 16.4485 41.2555 15 41.2555C11.5877 41.2555 10.2484 39.5814 8.57161 35.3894C7.43594 32.5502 6.90018 31.8805 5.625 31.8805L5.625 28.1305C9.03732 28.1305 10.3766 29.8045 12.0534 33.9966C13.1891 36.8358 13.7248 37.5055 15 37.5055C15 36.9614 14.9925 36.4795 14.9769 35.8269C14.9401 34.2973 14.9359 33.985 15.0026 33.5761C15.0293 32.6834 15.2598 32.05 15.7219 31.4214C11.5372 30.5104 8.71485 28.6291 7.09495 25.5776L6.48813 24.1506C5.89696 22.4516 5.625 20.5266 5.625 18.3034C5.625 15.743 6.40565 13.4537 7.86378 11.54C7.40893 9.72098 7.47122 7.49854 8.47558 4.98863L8.80376 4.16849L9.64513 3.89936C9.75778 3.86333 9.89472 3.83078 10.0556 3.80553C11.6939 3.5484 14.0252 4.1619 17.0729 6.11408C18.8696 5.6976 20.7616 5.48733 22.6664 5.48733C24.3687 5.48733 26.0615 5.65893 27.6781 5.99726C30.6432 4.14039 32.9104 3.558 34.5047 3.80586C34.6637 3.83059 34.7993 3.86251 34.911 3.89794L35.7576 4.16641L36.0862 4.99155C36.9648 7.19793 37.1156 9.23131 36.7959 11.0105C38.4721 13.0219 39.375 15.4946 39.375 18.3034C39.375 20.6714 39.2053 22.452 38.7177 24.1843L38.2029 25.5969C36.8555 28.6451 33.884 30.5475 29.3016 31.4536C29.7779 32.1131 30 32.7825 30 33.7555V35.6305C30 36.5391 30 36.5671 29.9979 37.5055C30.0022 37.5729 30.0078 37.6059 30.014 37.6264C30.0124 37.627 30 41.2555 30 41.2555C28.4029 41.2555 27.2154 40.4766 26.6313 39.248C26.3285 38.611 26.2381 38.0027 26.25 37.4789V33.7555C26.25 33.5983 26.2445 33.5892 25.8617 33.2063C24.8383 32.1829 24.375 31.4108 24.375 30.0055V28.3094L26.0626 28.1399C31.0863 27.6354 33.8185 26.2403 34.7244 24.2022L35.1477 23.0449C35.4846 21.8348 35.625 20.3611 35.625 18.3034C35.625 16.117 34.8617 14.3109 33.4181 12.8679L32.6246 12.0747L32.9485 11.0005C33.2362 10.0463 33.3046 8.9171 33.0002 7.62918C32.9496 7.642 32.897 7.65596 32.8425 7.67115C31.8385 7.95066 30.5851 8.5504 29.0746 9.56005L28.3857 10.0205L27.5814 9.82111C26.0257 9.43537 24.3541 9.23733 22.6664 9.23733C20.7897 9.23733 18.9346 9.4761 17.2209 9.94331L16.3845 10.1713L15.669 9.68186C14.1068 8.61314 12.809 7.97758 11.7683 7.68068C11.694 7.65948 11.6232 7.64051 11.5559 7.62361C11.1929 9.1142 11.3365 10.3389 11.7042 11.2578L12.1451 12.3596L11.3379 13.2297C10.0517 14.616 9.375 16.3031 9.375 18.3034C9.375 20.1349 9.5894 21.6524 9.98228 22.7955L10.4729 23.957C11.6995 26.2586 14.3048 27.6433 18.9498 28.1412L20.625 28.3207V30.0055C20.625 31.4108 20.1617 32.1829 19.1383 33.2063C18.7555 33.5892 18.75 33.5983 18.75 33.7555L18.7177 34.1021C18.6963 34.2158 18.6963 34.5093 18.7258 35.7368C18.7394 36.3013 18.7471 36.7481 18.7493 37.2151C18.7717 37.3117 18.7751 37.3741 18.7823 37.5068Z" fill="#412393"/>
</svg>
