<svg width="45" height="45" viewBox="0 0 45 45" fill="none" xmlns="http://www.w3.org/2000/svg">
<path fill-rule="evenodd" clip-rule="evenodd" d="M39.5991 8.45301L42.2518 8.7628L41.0594 11.1525C40.4779 12.3179 39.8958 13.4832 39.3132 14.6486C39.2441 14.8954 39.1227 15.1118 38.9431 15.3935C38.8681 15.5112 38.6117 15.8857 38.5997 15.9036C38.532 16.0052 38.482 16.0852 38.446 16.1493V20.6279C38.446 32.0878 27.3554 39.3702 16.8816 39.3702C14.7385 39.3702 13.1101 39.2675 11.2456 38.8606C8.17716 38.191 5.89364 36.86 4.8487 34.5337L3.7729 32.1388L6.38736 31.8983C8.75251 31.6808 10.8032 31.2302 12.378 30.6269C8.05457 29.9316 5.63175 28.0327 5.63175 24.4667V22.5917H7.50675C7.91871 22.5917 8.29018 22.5582 8.62227 22.4969C5.3775 20.5568 3.75229 17.4446 3.75229 13.1279C3.75194 12.9439 3.75194 12.9439 3.75083 12.7471C3.73864 10.5713 3.85551 9.40869 4.45115 7.92486C4.83289 6.97389 5.38468 6.09353 6.12731 5.28688L7.54221 3.75L8.91783 5.32213C13.4511 10.503 17.9324 13.6462 22.5078 14.0264C22.5274 9.24571 26.1404 5.62785 30.9456 5.62785C33.1858 5.62785 35.2178 6.47815 36.8146 8.01136C37.6886 8.19095 38.6169 8.3383 39.5991 8.45301ZM35.4537 11.5538L34.8789 11.4236L34.4819 10.988C33.5221 9.93478 32.3174 9.37785 30.9456 9.37785C28.2026 9.37785 26.2577 11.3323 26.2577 14.0654C26.2577 14.512 26.2462 14.7927 26.1906 15.1615C25.9685 16.6334 25.1429 17.8154 23.4452 17.8154C17.8239 17.8154 12.7525 14.8039 7.8073 9.66052C7.55236 10.4355 7.4924 11.2321 7.50077 12.7261C7.5019 12.9259 7.5019 12.9259 7.50229 13.1279C7.50229 16.9679 9.058 19.0683 12.7415 20.2391L14.0485 20.6545V22.026C14.0485 23.6891 12.4729 25.2546 10.1675 25.9559C11.2243 26.7577 13.3856 27.1904 16.8823 27.1904H18.7573V29.0654C18.7573 31.7517 15.6705 33.8551 11.0077 34.9535C12.5283 35.4194 14.5531 35.6202 16.8816 35.6202C25.5337 35.6202 34.696 29.604 34.696 20.6279V15.9404C34.696 15.3895 34.8556 14.9114 35.1209 14.4142C35.2246 14.2199 35.3388 14.0346 35.4798 13.8232C35.5063 13.7834 35.6047 13.6392 35.6829 13.524L35.8315 13.2268C36.0723 12.7452 36.313 12.2636 36.5536 11.7821C36.1797 11.7112 35.813 11.6351 35.4537 11.5538Z" fill="#412393"/>
</svg>
