<svg width="1440" height="276" viewBox="0 0 1440 276" fill="none" xmlns="http://www.w3.org/2000/svg">
<rect width="1440" height="276" fill="#271458"/>
<path d="M359.201 200.467C357.38 199.06 355.625 197.586 353.983 196.083L355.057 195.531C356.677 197.013 358.409 198.469 360.205 199.856L359.201 200.467ZM349.312 191.417C347.857 189.825 346.481 188.172 345.222 186.502L346.415 186.08C347.657 187.727 349.014 189.358 350.45 190.928L349.312 191.417ZM341.741 181.372C340.691 179.641 339.731 177.855 338.888 176.064L340.166 175.782C340.997 177.548 341.944 179.31 342.981 181.019L341.741 181.372ZM337.981 170.403L336.675 170.614C336.046 168.782 335.521 166.914 335.114 165.06L336.442 164.923C336.844 166.752 337.361 168.596 337.981 170.403ZM335.562 159.376L334.223 159.437C334.04 157.563 333.969 155.66 334.012 153.782L335.355 153.797C335.312 155.65 335.382 157.526 335.562 159.376H335.562ZM335.823 148.225L334.487 148.135C334.758 146.265 335.148 144.379 335.644 142.529L336.965 142.696C336.475 144.52 336.09 146.381 335.823 148.225H335.823ZM512.721 113.734C511.079 112.264 509.325 110.822 507.507 109.448L508.502 108.829C510.344 110.223 512.122 111.684 513.787 113.174L512.721 113.734ZM338.769 137.251L337.474 137.01C338.19 135.198 339.027 133.382 339.96 131.614L341.222 131.927C340.302 133.671 339.476 135.463 338.769 137.251ZM501.794 105.471C499.82 104.205 497.744 102.98 495.623 101.829L496.457 101.108C498.606 102.274 500.71 103.516 502.711 104.798L501.794 105.471ZM344.306 126.759L343.085 126.376C344.226 124.668 345.484 122.971 346.824 121.332L347.995 121.782C346.672 123.399 345.431 125.073 344.306 126.759ZM489.037 98.5471C486.786 97.5189 484.446 96.5424 482.081 95.6447L482.731 94.8396C485.128 95.7496 487.5 96.7392 489.782 97.781L489.037 98.5471ZM352.266 117.03L351.153 116.516C352.684 114.958 354.329 113.425 356.042 111.958L357.09 112.533C355.4 113.98 353.777 115.493 352.266 117.03ZM474.801 93.1423C472.336 92.3799 469.794 91.6783 467.246 91.0572L467.696 90.19C470.278 90.8197 472.854 91.5306 475.353 92.3033L474.801 93.1423ZM362.434 108.324L361.458 107.692C363.342 106.326 365.33 104.998 367.368 103.746L368.264 104.431C366.254 105.667 364.292 106.976 362.434 108.324ZM459.467 89.4045C456.849 88.9287 454.174 88.5225 451.515 88.1973L451.751 87.2911C454.446 87.6209 457.158 88.0327 459.811 88.5148L459.467 89.4045ZM374.542 100.882L373.731 100.148C375.915 99.0143 378.194 97.9296 380.506 96.9244L381.225 97.7016C378.945 98.6931 376.696 99.763 374.542 100.882ZM443.445 87.4447C440.754 87.2714 438.017 87.1735 435.312 87.1539L435.326 86.2338C438.068 86.2536 440.842 86.3527 443.571 86.5284L443.445 87.4447ZM388.274 94.9103L387.652 94.095C390.076 93.2247 392.587 92.4125 395.114 91.6809L395.637 92.5287C393.143 93.2506 390.667 94.0518 388.274 94.9103V94.9103ZM427.171 87.3266C424.48 87.4602 421.758 87.6732 419.082 87.9597L418.875 87.0503C421.587 86.7601 424.346 86.5441 427.074 86.4088L427.171 87.3266ZM403.26 90.5711L402.841 89.6968C405.44 89.111 408.119 88.5898 410.779 88.1504L411.094 89.0452C408.467 89.4788 405.826 89.9933 403.26 90.5711V90.5711Z" fill="#25CDC8"/>
<path d="M414.63 123.067L406.824 128.418L416.971 135.374L424.777 130.023L414.63 123.067Z" fill="#8765DD"/>
<path d="M386.486 47.0002V54.4697H375.589V47.0002H386.486ZM385.647 53.8951V47.5748H376.427V53.8951H385.647Z" fill="#25CDC8"/>
<path d="M895 203.785V211.352H909.35V203.785H895Z" fill="#8765DD"/>
<path d="M989.867 85.2618L982.062 90.6123L992.209 97.568L1000.01 92.2175L989.867 85.2618Z" fill="#8765DD"/>
<path d="M1048.13 17.0001C1050.41 18.0525 1052.64 19.1823 1054.78 20.3585L1053.94 21.076C1051.83 19.9158 1049.63 18.8009 1047.38 17.7629L1048.13 17.0001ZM1060.99 24.0829C1062.98 25.3769 1064.91 26.7446 1066.73 28.1473L1065.73 28.7598C1063.93 27.3757 1062.03 26.0266 1060.07 24.7501L1060.99 24.0829ZM1071.97 32.5239C1073.61 34.0225 1075.19 35.5889 1076.65 37.1799L1075.52 37.6713C1074.07 36.1013 1072.52 34.5558 1070.89 33.0773L1071.97 32.5239ZM1079.58 42.5094L1080.77 42.0828C1082.04 43.75 1083.23 45.4706 1084.3 47.1967L1083.06 47.5554C1082.01 45.8522 1080.84 44.1545 1079.58 42.5094ZM1085.92 52.7795L1087.2 52.4919C1088.05 54.2763 1088.81 56.1071 1089.45 57.9335L1088.14 58.148C1087.51 56.346 1086.77 54.5399 1085.92 52.7795ZM1089.71 63.6246L1091.04 63.4853C1091.45 65.3427 1091.76 67.2358 1091.95 69.1117L1090.61 69.1752C1090.42 67.3244 1090.12 65.457 1089.71 63.6246V63.6246ZM930.85 127.152C932.974 128.296 935.195 129.394 937.454 130.416L936.714 131.184C934.425 130.148 932.173 129.035 930.021 127.875L930.85 127.152ZM1090.83 74.7571L1092.17 74.7696C1092.14 76.6473 1091.98 78.5483 1091.72 80.4202L1090.38 80.3318C1090.64 78.4851 1090.79 76.6094 1090.83 74.7571ZM944.429 133.296C946.799 134.186 949.255 135.019 951.725 135.772L951.179 136.613C948.675 135.849 946.187 135.005 943.784 134.103L944.429 133.296ZM1089.27 85.8623L1090.59 86.0255C1090.1 87.8748 1089.5 89.7326 1088.8 91.548L1087.5 91.3113C1088.19 89.5202 1088.79 87.687 1089.27 85.8623ZM959.294 137.831C961.847 138.443 964.468 138.991 967.084 139.458L966.746 140.348C964.095 139.875 961.438 139.32 958.851 138.7L959.294 137.831ZM1085.08 96.6422L1086.35 96.9508C1085.43 98.7202 1084.39 100.486 1083.26 102.198L1082.04 101.819C1083.15 100.13 1084.18 98.388 1085.08 96.6422ZM975.043 140.642C977.707 140.961 980.424 141.208 983.116 141.376L982.995 142.293C980.265 142.122 977.513 141.872 974.812 141.549L975.043 140.642ZM1078.39 106.806L1079.56 107.253C1078.23 108.896 1076.79 110.521 1075.27 112.081L1074.15 111.57C1075.65 110.031 1077.08 108.428 1078.39 106.806ZM991.25 141.653C993.959 141.668 996.697 141.606 999.39 141.468L999.49 142.386C996.76 142.525 993.984 142.588 991.24 142.573L991.25 141.653ZM1069.36 116.077L1070.41 116.649C1068.7 118.119 1066.89 119.558 1065.01 120.925L1064.04 120.295C1065.88 118.946 1067.67 117.527 1069.36 116.077V116.077ZM1007.48 140.823C1010.15 140.533 1012.84 140.162 1015.46 139.72L1015.78 140.614C1013.12 141.062 1010.4 141.438 1007.69 141.732L1007.48 140.823ZM1058.22 124.199L1059.12 124.883C1057.08 126.138 1054.94 127.353 1052.76 128.492L1051.95 127.759C1054.1 126.636 1056.21 125.438 1058.22 124.199ZM1023.29 138.167C1025.85 137.579 1028.41 136.91 1030.89 136.177L1031.42 137.022C1028.9 137.765 1026.31 138.444 1023.71 139.04L1023.29 138.167ZM1045.27 130.953L1046 131.729C1043.69 132.739 1041.28 133.7 1038.87 134.578L1038.24 133.765C1040.63 132.898 1043 131.95 1045.27 130.953Z" fill="#25CDC8"/>
<path d="M1066.43 81.396C1066.43 82.2941 1066.04 83.1719 1065.32 83.9186C1064.59 84.6653 1063.55 85.2472 1062.34 85.5909C1061.13 85.9346 1059.8 86.0245 1058.52 85.8493C1057.23 85.6741 1056.05 85.2417 1055.13 84.6067C1054.2 83.9717 1053.57 83.1626 1053.31 82.2818C1053.06 81.4011 1053.19 80.4881 1053.69 79.6585C1054.19 78.8288 1055.04 78.1197 1056.13 77.6208C1057.22 77.1219 1058.5 76.8556 1059.81 76.8556C1061.57 76.857 1063.25 77.3358 1064.49 78.187C1065.73 79.0382 1066.43 80.1923 1066.43 81.396V81.396ZM1054.29 81.396C1054.29 82.1444 1054.61 82.876 1055.22 83.4982C1055.83 84.1204 1056.69 84.6054 1057.7 84.8918C1058.71 85.1781 1059.82 85.2531 1060.89 85.1071C1061.96 84.9611 1062.94 84.6007 1063.71 84.0715C1064.48 83.5424 1065.01 82.8682 1065.22 82.1342C1065.44 81.4003 1065.33 80.6395 1064.91 79.9481C1064.49 79.2567 1063.78 78.6658 1062.88 78.25C1061.97 77.8342 1060.9 77.6123 1059.81 77.6123C1058.35 77.6134 1056.94 78.0124 1055.91 78.7218C1054.87 79.4311 1054.29 80.3929 1054.29 81.396V81.396Z" fill="white"/>
<path d="M1015.3 235.204L1007.34 240.299L999.904 234.837L1007.87 229.743L1015.3 235.204ZM1007.38 239.487L1014.12 235.176L1007.83 230.555L1001.09 234.865L1007.38 239.487Z" fill="white"/>
</svg>
