<svg width="1185" height="534" viewBox="0 0 1185 534" fill="none" xmlns="http://www.w3.org/2000/svg">
<path d="M144.234 146.316C144.466 148.574 145.054 150.789 145.98 152.891C146.832 154.751 147.982 156.483 149.39 158.029C152.317 161.189 156.023 163.655 160.198 165.219C163.356 166.412 166.665 167.232 170.046 167.66C171.445 167.569 172.835 167.462 174.212 167.346C174.22 167.344 174.231 167.345 174.239 167.343C174.306 167.337 174.372 167.331 174.435 167.328C174.719 167.303 175.004 167.279 175.285 167.254L175.219 167.371L175.01 167.735C175.085 167.613 175.16 167.494 175.235 167.372C175.257 167.336 175.282 167.3 175.304 167.263C172.769 164.934 170.877 162.077 169.785 158.934C168.694 155.791 168.434 152.452 169.03 149.198C169.653 145.966 171.095 142.916 173.238 140.296C172.956 140.217 172.67 140.153 172.381 140.096C171.567 141.123 170.852 142.215 170.246 143.359C168.071 147.437 167.377 152.052 168.267 156.523C169.095 160.568 171.156 164.311 174.209 167.313C173.941 167.296 173.672 167.276 173.407 167.254C168.404 166.863 163.411 165.87 158.873 163.838C154.994 162.143 151.626 159.593 149.066 156.415C146.318 152.918 145.107 148.712 144.899 144.437C144.738 139.831 145.262 135.227 146.454 130.752C147.61 126.189 149.367 121.774 151.686 117.605C151.738 117.511 151.748 117.401 151.715 117.3C151.682 117.198 151.608 117.112 151.508 117.06C151.425 117.008 151.323 116.989 151.224 117.006C151.176 117.018 151.131 117.04 151.093 117.07C151.056 117.099 151.025 117.137 151.005 117.179C150.719 117.694 150.439 118.209 150.169 118.731C147.919 123.071 146.264 127.653 145.239 132.37C144.245 136.921 143.714 141.682 144.234 146.316Z" fill="white"/>
<path d="M141.385 162.995C149.387 168.313 159.756 168.58 169.78 167.927C171.179 167.836 172.569 167.729 173.946 167.613C173.954 167.611 173.965 167.612 173.974 167.61C174.04 167.604 174.106 167.599 174.169 167.595C174.454 167.571 174.738 167.546 175.019 167.521L174.953 167.638L174.744 168.002C174.819 167.88 174.894 167.761 174.969 167.64C174.991 167.603 175.016 167.567 175.038 167.53C177.635 163.362 180.21 159.04 180.867 154.28C181.546 149.34 179.638 143.745 174.924 141.317C174.306 140.999 173.651 140.746 172.972 140.563C172.69 140.484 172.405 140.42 172.116 140.363C170.348 140.001 168.508 140.08 166.784 140.591C165.06 141.103 163.515 142.029 162.308 143.274C161.1 144.519 160.274 146.038 159.914 147.675C159.554 149.312 159.674 151.008 160.26 152.589C156.264 148.809 157.009 142.676 158.388 137.551C159.769 132.426 161.441 126.723 158.632 122.12C157.07 119.557 154.324 117.967 151.242 117.327C151.148 117.308 151.053 117.289 150.958 117.273C147.287 116.587 143.469 117.204 140.269 119.001C134.376 122.427 131.35 128.922 130.368 135.284C128.785 145.522 132.287 156.949 141.385 162.995Z" fill="#25CDC8" fill-opacity="0.22"/>
<path opacity="0.1" d="M723.621 504.607C719.995 503.922 716.247 504.33 712.853 505.781C710.822 506.689 708.622 507.158 706.397 507.158C704.172 507.158 701.972 506.689 699.941 505.781C697.537 504.725 694.931 504.205 692.306 504.258C689.681 504.31 687.098 504.934 684.738 506.085C683.395 506.786 681.905 507.158 680.391 507.172C674.231 507.172 669.101 500.969 668.029 492.781C669.258 491.88 670.306 490.754 671.116 489.463C674.724 483.666 680.318 479.898 686.608 479.898C692.898 479.898 698.419 483.593 702.028 489.347C703.105 491.088 704.615 492.521 706.411 493.507C708.206 494.492 710.226 494.996 712.274 494.97H712.433C717.302 494.941 721.549 498.883 723.621 504.607Z" fill="#6C63FF"/>
<path opacity="0.1" d="M742.389 478.912L732.433 485.231L738.476 474.231C736.767 472.864 734.65 472.109 732.461 472.086H732.288C731.598 472.099 730.909 472.045 730.23 471.927L726.853 474.072L728.302 471.434C725.909 470.602 723.839 469.034 722.389 466.956L716.346 470.782L720.172 463.855C718.565 461.78 716.517 460.089 714.176 458.903C711.835 457.717 709.26 457.067 706.636 457C700.347 457 694.753 460.739 691.144 466.565C690.075 468.307 688.564 469.735 686.764 470.705C684.965 471.674 682.941 472.151 680.898 472.086H680.565C673.623 472.086 668 479.941 668 489.651C668 499.361 673.623 507.216 680.565 507.216C682.082 507.204 683.573 506.826 684.912 506.114C687.272 504.969 689.852 504.35 692.475 504.3C695.097 504.25 697.699 504.77 700.1 505.824C702.144 506.756 704.361 507.25 706.607 507.274C708.819 507.27 711.005 506.806 713.027 505.911C715.414 504.878 717.995 504.37 720.595 504.42C723.195 504.47 725.754 505.077 728.099 506.201C729.441 506.904 730.933 507.272 732.447 507.274C739.374 507.274 744.997 499.404 744.997 489.709C745.056 485.947 744.158 482.232 742.389 478.912Z" fill="#6C63FF"/>
<path opacity="0.1" d="M1119.12 247.171C1115.07 246.406 1110.89 246.863 1107.1 248.482C1104.83 249.496 1102.37 250.02 1099.89 250.02C1097.4 250.02 1094.94 249.496 1092.67 248.482C1089.99 247.303 1087.08 246.723 1084.15 246.781C1081.21 246.84 1078.33 247.537 1075.69 248.822C1074.19 249.605 1072.53 250.021 1070.84 250.036C1063.96 250.036 1058.23 243.109 1057.03 233.963C1058.41 232.957 1059.58 231.699 1060.48 230.257C1064.51 223.782 1070.76 219.574 1077.78 219.574C1084.81 219.574 1090.97 223.701 1095 230.127C1096.21 232.073 1097.89 233.673 1099.9 234.774C1101.91 235.874 1104.16 236.437 1106.45 236.408H1106.63C1112.07 236.375 1116.81 240.778 1119.12 247.171Z" fill="#6C63FF"/>
<path opacity="0.1" d="M1140.08 218.473L1128.96 225.531L1135.71 213.245C1133.81 211.718 1131.44 210.874 1129 210.85H1128.8C1128.03 210.864 1127.26 210.804 1126.5 210.672L1122.73 213.067L1124.35 210.121C1121.68 209.191 1119.37 207.441 1117.75 205.12L1111 209.393L1115.27 201.656C1113.48 199.339 1111.19 197.45 1108.57 196.125C1105.96 194.801 1103.08 194.075 1100.15 194C1093.13 194 1086.88 198.176 1082.85 204.683C1081.65 206.628 1079.97 208.223 1077.96 209.306C1075.95 210.389 1073.69 210.922 1071.41 210.85H1071.03C1063.28 210.85 1057 219.623 1057 230.467C1057 241.312 1063.28 250.085 1071.03 250.085C1072.73 250.072 1074.39 249.65 1075.89 248.855C1078.52 247.576 1081.41 246.885 1084.34 246.829C1087.26 246.773 1090.17 247.354 1092.85 248.531C1095.14 249.572 1097.61 250.124 1100.12 250.15C1102.59 250.145 1105.03 249.627 1107.29 248.628C1109.96 247.475 1112.84 246.907 1115.74 246.962C1118.65 247.018 1121.5 247.697 1124.12 248.952C1125.62 249.737 1127.29 250.148 1128.98 250.15C1136.72 250.15 1143 241.361 1143 230.532C1143.06 226.331 1142.06 222.181 1140.08 218.473Z" fill="#6C63FF"/>
<path opacity="0.1" d="M80.5648 365.279C77.2682 364.656 73.8609 365.028 70.7759 366.346C68.9292 367.171 66.9293 367.598 64.9066 367.598C62.8839 367.598 60.8839 367.171 59.0372 366.346C56.8516 365.386 54.4832 364.914 52.0966 364.962C49.7099 365.009 47.3623 365.576 45.2169 366.623C43.9959 367.26 42.6415 367.598 41.2644 367.611C35.6652 367.611 31.0013 361.972 30.0264 354.529C31.1441 353.709 32.0963 352.686 32.8326 351.512C36.1131 346.242 41.1986 342.816 46.9164 342.816C52.6343 342.816 57.6538 346.176 60.9344 351.406C61.914 352.989 63.2867 354.292 64.9189 355.188C66.5511 356.084 68.3873 356.542 70.2489 356.518H70.3939C74.8206 356.492 78.6808 360.075 80.5648 365.279Z" fill="#6C63FF"/>
<path opacity="0.1" d="M97.6261 341.92L88.575 347.664L94.0689 337.665C92.5158 336.422 90.5906 335.735 88.6013 335.715H88.4432C87.8165 335.726 87.19 335.678 86.5724 335.57L83.5027 337.52L84.8202 335.122C82.6443 334.365 80.7631 332.94 79.4449 331.051L73.951 334.529L77.4292 328.232C75.9685 326.346 74.1066 324.808 71.9783 323.73C69.8501 322.652 67.5088 322.061 65.1239 322C59.4061 322 54.3206 325.399 51.0401 330.695C50.0678 332.279 48.6941 333.577 47.0584 334.459C45.4226 335.34 43.5828 335.774 41.7255 335.715H41.4225C35.1118 335.715 30 342.856 30 351.683C30 360.51 35.1118 367.651 41.4225 367.651C42.8014 367.64 44.1573 367.296 45.3749 366.649C47.5201 365.608 49.8657 365.046 52.2496 365C54.6335 364.955 56.9988 365.428 59.1821 366.386C61.0403 367.233 63.0554 367.682 65.0976 367.703C67.1079 367.7 69.0955 367.278 70.934 366.465C73.1037 365.526 75.4497 365.063 77.8135 365.109C80.1773 365.154 82.5037 365.707 84.6358 366.728C85.8553 367.367 87.2114 367.702 88.5882 367.703C94.8857 367.703 99.9975 360.549 99.9975 351.735C100.051 348.316 99.2348 344.938 97.6261 341.92Z" fill="#6C63FF"/>
<path opacity="0.1" d="M501.395 51.2954C499.088 50.8594 496.703 51.1194 494.543 52.0424C493.251 52.62 491.851 52.9186 490.435 52.9186C489.019 52.9186 487.619 52.62 486.326 52.0424C484.796 51.3705 483.138 51.0397 481.468 51.0732C479.797 51.1066 478.154 51.5034 476.652 52.236C475.797 52.6818 474.849 52.9188 473.885 52.9277C469.966 52.9277 466.701 48.9806 466.019 43.7699C466.801 43.1965 467.468 42.4799 467.983 41.6581C470.279 37.9691 473.839 35.5713 477.842 35.5713C481.844 35.5713 485.358 37.923 487.654 41.5843C488.34 42.6925 489.301 43.6045 490.443 44.2316C491.586 44.8586 492.871 45.1793 494.174 45.1625H494.276C497.375 45.1441 500.077 47.6526 501.395 51.2954Z" fill="#6C63FF"/>
<path opacity="0.1" d="M513.338 34.9442L507.003 38.9651L510.848 31.9654C509.761 31.0951 508.413 30.6145 507.021 30.6004H506.91C506.472 30.6083 506.033 30.5743 505.601 30.499L503.452 31.8639L504.374 30.1854C502.851 29.6556 501.534 28.6583 500.611 27.3357L496.766 29.7704L499.2 25.3622C498.178 24.0419 496.875 22.9655 495.385 22.211C493.895 21.4566 492.256 21.0429 490.587 21C486.584 21 483.024 23.3794 480.728 27.0867C480.047 28.1952 479.086 29.104 477.941 29.7211C476.796 30.3381 475.508 30.6415 474.208 30.6004H473.996C469.578 30.6004 466 35.5989 466 41.7779C466 47.9569 469.578 52.9554 473.996 52.9554C474.961 52.9479 475.91 52.7075 476.762 52.2545C478.264 51.5259 479.906 51.1321 481.575 51.1003C483.243 51.0684 484.899 51.3993 486.427 52.07C487.728 52.6632 489.139 52.9774 490.568 52.9923C491.976 52.9898 493.367 52.6946 494.654 52.1254C496.173 51.4681 497.815 51.1444 499.469 51.1762C501.124 51.2081 502.753 51.5946 504.245 52.3098C505.099 52.7571 506.048 52.9912 507.012 52.9923C511.42 52.9923 514.998 47.9845 514.998 41.8148C515.036 39.421 514.464 37.0569 513.338 34.9442Z" fill="#6C63FF"/>
<path opacity="0.1" d="M590.395 311.295C588.088 310.859 585.703 311.119 583.543 312.042C582.251 312.62 580.851 312.919 579.435 312.919C578.019 312.919 576.619 312.62 575.326 312.042C573.796 311.37 572.138 311.04 570.468 311.073C568.797 311.107 567.154 311.503 565.652 312.236C564.797 312.682 563.849 312.919 562.885 312.928C558.966 312.928 555.701 308.981 555.019 303.77C555.801 303.196 556.468 302.48 556.983 301.658C559.279 297.969 562.839 295.571 566.842 295.571C570.844 295.571 574.358 297.923 576.654 301.584C577.34 302.693 578.301 303.605 579.443 304.232C580.586 304.859 581.871 305.179 583.174 305.163H583.276C586.375 305.144 589.077 307.653 590.395 311.295Z" fill="#6C63FF"/>
<path opacity="0.1" d="M602.338 294.944L596.003 298.965L599.848 291.965C598.761 291.095 597.413 290.615 596.021 290.6H595.91C595.472 290.608 595.033 290.574 594.601 290.499L592.452 291.864L593.374 290.185C591.851 289.656 590.534 288.658 589.611 287.336L585.766 289.77L588.2 285.362C587.178 284.042 585.875 282.965 584.385 282.211C582.895 281.457 581.256 281.043 579.587 281C575.584 281 572.024 283.379 569.728 287.087C569.047 288.195 568.086 289.104 566.941 289.721C565.796 290.338 564.508 290.642 563.208 290.6H562.996C558.578 290.6 555 295.599 555 301.778C555 307.957 558.578 312.955 562.996 312.955C563.961 312.948 564.91 312.707 565.762 312.254C567.264 311.526 568.906 311.132 570.575 311.1C572.243 311.068 573.899 311.399 575.427 312.07C576.728 312.663 578.139 312.977 579.568 312.992C580.976 312.99 582.367 312.695 583.654 312.125C585.173 311.468 586.815 311.144 588.469 311.176C590.124 311.208 591.753 311.595 593.245 312.31C594.099 312.757 595.048 312.991 596.012 312.992C600.42 312.992 603.998 307.985 603.998 301.815C604.036 299.421 603.464 297.057 602.338 294.944Z" fill="#6C63FF"/>
<path d="M625.248 216.541C625.248 217.439 624.859 218.316 624.131 219.063C623.403 219.81 622.369 220.392 621.159 220.735C619.948 221.079 618.616 221.169 617.332 220.994C616.047 220.819 614.866 220.386 613.94 219.751C613.014 219.116 612.383 218.307 612.127 217.426C611.872 216.546 612.003 215.633 612.504 214.803C613.006 213.973 613.855 213.264 614.944 212.765C616.033 212.266 617.314 212 618.624 212C620.38 212.001 622.064 212.48 623.305 213.332C624.547 214.183 625.246 215.337 625.248 216.541ZM613.104 216.541C613.104 217.289 613.428 218.02 614.034 218.643C614.641 219.265 615.503 219.75 616.511 220.036C617.52 220.323 618.63 220.398 619.701 220.252C620.771 220.106 621.755 219.745 622.527 219.216C623.299 218.687 623.825 218.013 624.038 217.279C624.25 216.545 624.141 215.784 623.723 215.093C623.306 214.401 622.598 213.81 621.69 213.395C620.783 212.979 619.716 212.757 618.624 212.757C617.16 212.758 615.757 213.157 614.723 213.866C613.688 214.576 613.106 215.537 613.104 216.541Z" fill="white"/>
<path d="M295.248 189.541C295.248 190.439 294.859 191.316 294.131 192.063C293.403 192.81 292.369 193.392 291.159 193.735C289.948 194.079 288.616 194.169 287.332 193.994C286.047 193.819 284.866 193.386 283.94 192.751C283.014 192.116 282.383 191.307 282.127 190.426C281.872 189.546 282.003 188.633 282.504 187.803C283.006 186.973 283.855 186.264 284.944 185.765C286.033 185.266 287.314 185 288.624 185C290.38 185.001 292.064 185.48 293.305 186.332C294.547 187.183 295.246 188.337 295.248 189.541ZM283.104 189.541C283.104 190.289 283.428 191.02 284.034 191.643C284.641 192.265 285.503 192.75 286.511 193.036C287.52 193.323 288.63 193.398 289.701 193.252C290.771 193.106 291.755 192.745 292.527 192.216C293.299 191.687 293.825 191.013 294.038 190.279C294.25 189.545 294.141 188.784 293.723 188.093C293.306 187.401 292.598 186.81 291.69 186.395C290.783 185.979 289.716 185.757 288.624 185.757C287.16 185.758 285.757 186.157 284.723 186.866C283.688 187.576 283.106 188.537 283.104 189.541Z" fill="white"/>
<path d="M734.248 408.54C734.248 409.438 733.859 410.316 733.131 411.063C732.403 411.81 731.369 412.392 730.159 412.735C728.948 413.079 727.616 413.169 726.332 412.994C725.047 412.818 723.866 412.386 722.94 411.751C722.014 411.116 721.383 410.307 721.127 409.426C720.872 408.545 721.003 407.633 721.504 406.803C722.006 405.973 722.855 405.264 723.944 404.765C725.033 404.266 726.314 404 727.624 404C729.38 404.001 731.064 404.48 732.305 405.331C733.547 406.183 734.246 407.337 734.248 408.54ZM722.104 408.54C722.104 409.289 722.428 410.02 723.034 410.643C723.641 411.265 724.503 411.75 725.511 412.036C726.52 412.323 727.63 412.397 728.701 412.251C729.771 412.105 730.755 411.745 731.527 411.216C732.299 410.687 732.825 410.013 733.038 409.279C733.25 408.545 733.141 407.784 732.723 407.092C732.306 406.401 731.598 405.81 730.69 405.394C729.783 404.979 728.716 404.757 727.624 404.757C726.16 404.758 724.757 405.157 723.723 405.866C722.688 406.576 722.106 407.537 722.104 408.54Z" fill="white"/>
<path d="M393.248 317.54C393.248 318.438 392.859 319.316 392.131 320.063C391.403 320.81 390.369 321.392 389.159 321.735C387.948 322.079 386.616 322.169 385.332 321.994C384.047 321.818 382.866 321.386 381.94 320.751C381.014 320.116 380.383 319.307 380.127 318.426C379.872 317.545 380.003 316.633 380.504 315.803C381.006 314.973 381.855 314.264 382.944 313.765C384.033 313.266 385.314 313 386.624 313C388.38 313.001 390.064 313.48 391.305 314.331C392.547 315.183 393.246 316.337 393.248 317.54ZM381.104 317.54C381.104 318.289 381.428 319.02 382.034 319.643C382.641 320.265 383.503 320.75 384.511 321.036C385.52 321.323 386.63 321.397 387.701 321.251C388.771 321.105 389.755 320.745 390.527 320.216C391.299 319.687 391.825 319.013 392.038 318.279C392.25 317.545 392.141 316.784 391.723 316.092C391.306 315.401 390.598 314.81 389.69 314.394C388.783 313.979 387.716 313.757 386.624 313.757C385.16 313.758 383.757 314.157 382.723 314.866C381.688 315.576 381.106 316.537 381.104 317.54Z" fill="white"/>
<path d="M656.248 121.541C656.248 122.439 655.859 123.316 655.131 124.063C654.403 124.81 653.369 125.392 652.159 125.735C650.948 126.079 649.616 126.169 648.332 125.994C647.047 125.819 645.866 125.386 644.94 124.751C644.014 124.116 643.383 123.307 643.127 122.426C642.872 121.546 643.003 120.633 643.504 119.803C644.006 118.973 644.855 118.264 645.944 117.765C647.033 117.266 648.314 117 649.624 117C651.38 117.001 653.064 117.48 654.305 118.332C655.547 119.183 656.246 120.337 656.248 121.541ZM644.104 121.541C644.104 122.289 644.428 123.02 645.034 123.643C645.641 124.265 646.503 124.75 647.511 125.036C648.52 125.323 649.63 125.398 650.701 125.252C651.771 125.106 652.755 124.745 653.527 124.216C654.299 123.687 654.825 123.013 655.038 122.279C655.25 121.545 655.141 120.784 654.723 120.093C654.306 119.401 653.598 118.81 652.69 118.395C651.783 117.979 650.716 117.757 649.624 117.757C648.16 117.758 646.757 118.157 645.723 118.866C644.688 119.576 644.106 120.537 644.104 121.541Z" fill="white"/>
<path d="M1143.25 367.54C1143.25 368.438 1142.86 369.316 1142.13 370.063C1141.4 370.81 1140.37 371.392 1139.16 371.735C1137.95 372.079 1136.62 372.169 1135.33 371.994C1134.05 371.818 1132.87 371.386 1131.94 370.751C1131.01 370.116 1130.38 369.307 1130.13 368.426C1129.87 367.545 1130 366.633 1130.5 365.803C1131.01 364.973 1131.85 364.264 1132.94 363.765C1134.03 363.266 1135.31 363 1136.62 363C1138.38 363.001 1140.06 363.48 1141.31 364.331C1142.55 365.183 1143.25 366.337 1143.25 367.54ZM1131.1 367.54C1131.1 368.289 1131.43 369.02 1132.03 369.643C1132.64 370.265 1133.5 370.75 1134.51 371.036C1135.52 371.323 1136.63 371.397 1137.7 371.251C1138.77 371.105 1139.75 370.745 1140.53 370.216C1141.3 369.687 1141.82 369.013 1142.04 368.279C1142.25 367.545 1142.14 366.784 1141.72 366.092C1141.31 365.401 1140.6 364.81 1139.69 364.394C1138.78 363.979 1137.72 363.757 1136.62 363.757C1135.16 363.758 1133.76 364.157 1132.72 364.866C1131.69 365.576 1131.11 366.537 1131.1 367.54Z" fill="white"/>
<path d="M747.248 40.5406C747.248 41.4386 746.859 42.3164 746.131 43.0631C745.403 43.8098 744.369 44.3918 743.159 44.7354C741.948 45.0791 740.616 45.169 739.332 44.9938C738.047 44.8186 736.866 44.3862 735.94 43.7512C735.014 43.1162 734.383 42.3071 734.127 41.4264C733.872 40.5456 734.003 39.6327 734.504 38.803C735.006 37.9733 735.855 37.2642 736.944 36.7653C738.033 36.2664 739.314 36.0001 740.624 36.0001C742.38 36.0015 744.064 36.4803 745.305 37.3315C746.547 38.1827 747.246 39.3368 747.248 40.5406ZM735.104 40.5406C735.104 41.2889 735.428 42.0205 736.034 42.6427C736.641 43.2649 737.503 43.7499 738.511 44.0363C739.52 44.3227 740.63 44.3976 741.701 44.2516C742.771 44.1056 743.755 43.7452 744.527 43.2161C745.299 42.6869 745.825 42.0127 746.038 41.2788C746.25 40.5448 746.141 39.784 745.723 39.0926C745.306 38.4012 744.598 37.8103 743.69 37.3945C742.783 36.9788 741.716 36.7569 740.624 36.7569C739.16 36.758 737.757 37.157 736.723 37.8663C735.688 38.5757 735.106 39.5374 735.104 40.5406Z" fill="white"/>
<path d="M275.248 27.5406C275.248 28.4386 274.859 29.3164 274.131 30.0631C273.403 30.8098 272.369 31.3918 271.159 31.7354C269.948 32.0791 268.616 32.169 267.332 31.9938C266.047 31.8186 264.866 31.3862 263.94 30.7512C263.014 30.1162 262.383 29.3071 262.127 28.4264C261.872 27.5456 262.003 26.6327 262.504 25.803C263.006 24.9733 263.855 24.2642 264.944 23.7653C266.033 23.2664 267.314 23.0001 268.624 23.0001C270.38 23.0015 272.064 23.4803 273.305 24.3315C274.547 25.1827 275.246 26.3368 275.248 27.5406ZM263.104 27.5406C263.104 28.2889 263.428 29.0205 264.034 29.6427C264.641 30.2649 265.503 30.7499 266.511 31.0363C267.52 31.3227 268.63 31.3976 269.701 31.2516C270.771 31.1056 271.755 30.7452 272.527 30.2161C273.299 29.6869 273.825 29.0127 274.038 28.2788C274.25 27.5448 274.141 26.784 273.723 26.0926C273.306 25.4012 272.598 24.8103 271.69 24.3945C270.783 23.9788 269.716 23.7569 268.624 23.7569C267.16 23.758 265.757 24.157 264.723 24.8663C263.688 25.5757 263.106 26.5374 263.104 27.5406Z" fill="white"/>
<path d="M50.2476 147.541C50.2476 148.439 49.8591 149.316 49.1312 150.063C48.4034 150.81 47.3689 151.392 46.1586 151.735C44.9482 152.079 43.6164 152.169 42.3315 151.994C41.0467 151.819 39.8664 151.386 38.9401 150.751C38.0137 150.116 37.3829 149.307 37.1273 148.426C36.8717 147.546 37.0029 146.633 37.5042 145.803C38.0055 144.973 38.8545 144.264 39.9438 143.765C41.0331 143.266 42.3137 143 43.6238 143C45.3799 143.001 47.0635 143.48 48.3053 144.332C49.547 145.183 50.2455 146.337 50.2476 147.541ZM38.104 147.541C38.104 148.289 38.4277 149.02 39.0342 149.643C39.6408 150.265 40.5028 150.75 41.5115 151.036C42.5201 151.323 43.6299 151.398 44.7006 151.252C45.7714 151.106 46.7549 150.745 47.5269 150.216C48.2988 149.687 48.8245 149.013 49.0375 148.279C49.2505 147.545 49.1412 146.784 48.7234 146.093C48.3056 145.401 47.5981 144.81 46.6904 144.395C45.7827 143.979 44.7155 143.757 43.6238 143.757C42.1604 143.758 40.7573 144.157 39.7225 144.866C38.6877 145.576 38.1056 146.537 38.104 147.541Z" fill="white"/>
<path d="M457.248 471.54C457.248 472.438 456.859 473.316 456.131 474.063C455.403 474.81 454.369 475.392 453.159 475.735C451.948 476.079 450.616 476.169 449.332 475.994C448.047 475.818 446.866 475.386 445.94 474.751C445.014 474.116 444.383 473.307 444.127 472.426C443.872 471.545 444.003 470.633 444.504 469.803C445.006 468.973 445.855 468.264 446.944 467.765C448.033 467.266 449.314 467 450.624 467C452.38 467.001 454.064 467.48 455.305 468.331C456.547 469.183 457.246 470.337 457.248 471.54ZM445.104 471.54C445.104 472.289 445.428 473.02 446.034 473.643C446.641 474.265 447.503 474.75 448.511 475.036C449.52 475.323 450.63 475.397 451.701 475.251C452.771 475.105 453.755 474.745 454.527 474.216C455.299 473.687 455.825 473.013 456.038 472.279C456.25 471.545 456.141 470.784 455.723 470.092C455.306 469.401 454.598 468.81 453.69 468.394C452.783 467.979 451.716 467.757 450.624 467.757C449.16 467.758 447.757 468.157 446.723 468.866C445.688 469.576 445.106 470.537 445.104 471.54Z" fill="white"/>
<path d="M160.248 363.54C160.248 364.438 159.859 365.316 159.131 366.063C158.403 366.81 157.369 367.392 156.159 367.735C154.948 368.079 153.616 368.169 152.332 367.994C151.047 367.818 149.866 367.386 148.94 366.751C148.014 366.116 147.383 365.307 147.127 364.426C146.872 363.545 147.003 362.633 147.504 361.803C148.006 360.973 148.855 360.264 149.944 359.765C151.033 359.266 152.314 359 153.624 359C155.38 359.001 157.064 359.48 158.305 360.331C159.547 361.183 160.246 362.337 160.248 363.54ZM148.104 363.54C148.104 364.289 148.428 365.02 149.034 365.643C149.641 366.265 150.503 366.75 151.511 367.036C152.52 367.323 153.63 367.397 154.701 367.251C155.771 367.105 156.755 366.745 157.527 366.216C158.299 365.687 158.825 365.013 159.038 364.279C159.25 363.545 159.141 362.784 158.723 362.092C158.306 361.401 157.598 360.81 156.69 360.394C155.783 359.979 154.716 359.757 153.624 359.757C152.16 359.758 150.757 360.157 149.723 360.866C148.688 361.576 148.106 362.537 148.104 363.54Z" fill="white"/>
<path d="M869.248 130.541C869.248 131.439 868.859 132.316 868.131 133.063C867.403 133.81 866.369 134.392 865.159 134.735C863.948 135.079 862.616 135.169 861.332 134.994C860.047 134.819 858.866 134.386 857.94 133.751C857.014 133.116 856.383 132.307 856.127 131.426C855.872 130.546 856.003 129.633 856.504 128.803C857.006 127.973 857.855 127.264 858.944 126.765C860.033 126.266 861.314 126 862.624 126C864.38 126.001 866.064 126.48 867.305 127.332C868.547 128.183 869.246 129.337 869.248 130.541ZM857.104 130.541C857.104 131.289 857.428 132.02 858.034 132.643C858.641 133.265 859.503 133.75 860.511 134.036C861.52 134.323 862.63 134.398 863.701 134.252C864.771 134.106 865.755 133.745 866.527 133.216C867.299 132.687 867.825 132.013 868.038 131.279C868.25 130.545 868.141 129.784 867.723 129.093C867.306 128.401 866.598 127.81 865.69 127.395C864.783 126.979 863.716 126.757 862.624 126.757C861.16 126.758 859.757 127.157 858.723 127.866C857.688 128.576 857.106 129.537 857.104 130.541Z" fill="white"/>
<path d="M435.248 121.541C435.248 122.439 434.859 123.316 434.131 124.063C433.403 124.81 432.369 125.392 431.159 125.735C429.948 126.079 428.616 126.169 427.332 125.994C426.047 125.819 424.866 125.386 423.94 124.751C423.014 124.116 422.383 123.307 422.127 122.426C421.872 121.546 422.003 120.633 422.504 119.803C423.006 118.973 423.855 118.264 424.944 117.765C426.033 117.266 427.314 117 428.624 117C430.38 117.001 432.064 117.48 433.305 118.332C434.547 119.183 435.246 120.337 435.248 121.541ZM423.104 121.541C423.104 122.289 423.428 123.02 424.034 123.643C424.641 124.265 425.503 124.75 426.511 125.036C427.52 125.323 428.63 125.398 429.701 125.252C430.771 125.106 431.755 124.745 432.527 124.216C433.299 123.687 433.825 123.013 434.038 122.279C434.25 121.545 434.141 120.784 433.723 120.093C433.306 119.401 432.598 118.81 431.69 118.395C430.783 117.979 429.716 117.757 428.624 117.757C427.16 117.758 425.757 118.157 424.723 118.866C423.688 119.576 423.106 120.537 423.104 121.541Z" fill="white"/>
<path d="M38.2476 433.54C38.2476 434.438 37.8591 435.316 37.1312 436.063C36.4034 436.81 35.3689 437.392 34.1586 437.735C32.9482 438.079 31.6164 438.169 30.3315 437.994C29.0467 437.818 27.8664 437.386 26.9401 436.751C26.0137 436.116 25.3829 435.307 25.1273 434.426C24.8717 433.545 25.0029 432.633 25.5042 431.803C26.0055 430.973 26.8545 430.264 27.9438 429.765C29.0331 429.266 30.3137 429 31.6238 429C33.3799 429.001 35.0635 429.48 36.3053 430.331C37.547 431.183 38.2455 432.337 38.2476 433.54ZM26.104 433.54C26.104 434.289 26.4277 435.02 27.0342 435.643C27.6408 436.265 28.5028 436.75 29.5115 437.036C30.5201 437.323 31.6299 437.397 32.7006 437.251C33.7714 437.105 34.7549 436.745 35.5269 436.216C36.2988 435.687 36.8245 435.013 37.0375 434.279C37.2505 433.545 37.1412 432.784 36.7234 432.092C36.3056 431.401 35.5981 430.81 34.6904 430.394C33.7827 429.979 32.7155 429.757 31.6238 429.757C30.1604 429.758 28.7573 430.157 27.7225 430.866C26.6877 431.576 26.1056 432.537 26.104 433.54Z" fill="white"/>
<path d="M854.248 350.54C854.248 351.438 853.859 352.316 853.131 353.063C852.403 353.81 851.369 354.392 850.159 354.735C848.948 355.079 847.616 355.169 846.332 354.994C845.047 354.818 843.866 354.386 842.94 353.751C842.014 353.116 841.383 352.307 841.127 351.426C840.872 350.545 841.003 349.633 841.504 348.803C842.006 347.973 842.855 347.264 843.944 346.765C845.033 346.266 846.314 346 847.624 346C849.38 346.001 851.064 346.48 852.305 347.331C853.547 348.183 854.246 349.337 854.248 350.54ZM842.104 350.54C842.104 351.289 842.428 352.02 843.034 352.643C843.641 353.265 844.503 353.75 845.511 354.036C846.52 354.323 847.63 354.397 848.701 354.251C849.771 354.105 850.755 353.745 851.527 353.216C852.299 352.687 852.825 352.013 853.038 351.279C853.25 350.545 853.141 349.784 852.723 349.092C852.306 348.401 851.598 347.81 850.69 347.394C849.783 346.979 848.716 346.757 847.624 346.757C846.16 346.758 844.757 347.157 843.723 347.866C842.688 348.576 842.106 349.537 842.104 350.54Z" fill="white"/>
<path d="M561.248 412.54C561.248 413.438 560.859 414.316 560.131 415.063C559.403 415.81 558.369 416.392 557.159 416.735C555.948 417.079 554.616 417.169 553.332 416.994C552.047 416.818 550.866 416.386 549.94 415.751C549.014 415.116 548.383 414.307 548.127 413.426C547.872 412.545 548.003 411.633 548.504 410.803C549.006 409.973 549.855 409.264 550.944 408.765C552.033 408.266 553.314 408 554.624 408C556.38 408.001 558.064 408.48 559.305 409.331C560.547 410.183 561.246 411.337 561.248 412.54ZM549.104 412.54C549.104 413.289 549.428 414.02 550.034 414.643C550.641 415.265 551.503 415.75 552.511 416.036C553.52 416.323 554.63 416.397 555.701 416.251C556.771 416.105 557.755 415.745 558.527 415.216C559.299 414.687 559.825 414.013 560.038 413.279C560.25 412.545 560.141 411.784 559.723 411.092C559.306 410.401 558.598 409.81 557.69 409.394C556.783 408.979 555.716 408.757 554.624 408.757C553.16 408.758 551.757 409.157 550.723 409.866C549.688 410.576 549.106 411.537 549.104 412.54Z" fill="white"/>
<path d="M1026.25 207.541C1026.25 208.439 1025.86 209.316 1025.13 210.063C1024.4 210.81 1023.37 211.392 1022.16 211.735C1020.95 212.079 1019.62 212.169 1018.33 211.994C1017.05 211.819 1015.87 211.386 1014.94 210.751C1014.01 210.116 1013.38 209.307 1013.13 208.426C1012.87 207.546 1013 206.633 1013.5 205.803C1014.01 204.973 1014.85 204.264 1015.94 203.765C1017.03 203.266 1018.31 203 1019.62 203C1021.38 203.001 1023.06 203.48 1024.31 204.332C1025.55 205.183 1026.25 206.337 1026.25 207.541ZM1014.1 207.541C1014.1 208.289 1014.43 209.02 1015.03 209.643C1015.64 210.265 1016.5 210.75 1017.51 211.036C1018.52 211.323 1019.63 211.398 1020.7 211.252C1021.77 211.106 1022.75 210.745 1023.53 210.216C1024.3 209.687 1024.82 209.013 1025.04 208.279C1025.25 207.545 1025.14 206.784 1024.72 206.093C1024.31 205.401 1023.6 204.81 1022.69 204.395C1021.78 203.979 1020.72 203.757 1019.62 203.757C1018.16 203.758 1016.76 204.157 1015.72 204.866C1014.69 205.576 1014.11 206.537 1014.1 207.541Z" fill="white"/>
<path d="M1000.25 388.54C1000.25 389.438 999.859 390.316 999.131 391.063C998.403 391.81 997.369 392.392 996.159 392.735C994.948 393.079 993.616 393.169 992.332 392.994C991.047 392.818 989.866 392.386 988.94 391.751C988.014 391.116 987.383 390.307 987.127 389.426C986.872 388.545 987.003 387.633 987.504 386.803C988.006 385.973 988.855 385.264 989.944 384.765C991.033 384.266 992.314 384 993.624 384C995.38 384.001 997.064 384.48 998.305 385.331C999.547 386.183 1000.25 387.337 1000.25 388.54ZM988.104 388.54C988.104 389.289 988.428 390.02 989.034 390.643C989.641 391.265 990.503 391.75 991.511 392.036C992.52 392.323 993.63 392.397 994.701 392.251C995.771 392.105 996.755 391.745 997.527 391.216C998.299 390.687 998.825 390.013 999.038 389.279C999.25 388.545 999.141 387.784 998.723 387.092C998.306 386.401 997.598 385.81 996.69 385.394C995.783 384.979 994.716 384.757 993.624 384.757C992.16 384.758 990.757 385.157 989.723 385.866C988.688 386.576 988.106 387.537 988.104 388.54Z" fill="white"/>
<path d="M470.743 255.654L457 241.048L478.308 221L492.05 235.606L470.743 255.654ZM459.696 240.63L471.324 252.989L489.354 236.025L477.726 223.666L459.696 240.63Z" fill="#25CDC8"/>
<path d="M1078.74 96.6542L1065 82.0482L1086.31 62L1100.05 76.606L1078.74 96.6542ZM1067.7 81.6296L1079.32 93.9885L1097.35 77.0246L1085.73 64.6657L1067.7 81.6296Z" fill="#25CDC8"/>
<path d="M169.743 265.654L156 251.048L177.308 231L191.05 245.606L169.743 265.654ZM158.696 250.63L170.324 262.989L188.354 246.025L176.726 233.666L158.696 250.63Z" fill="#25CDC8"/>
<path d="M861.743 509.654L848 495.048L869.308 475L883.05 489.606L861.743 509.654ZM850.696 494.63L862.324 506.989L880.354 490.025L868.726 477.666L850.696 494.63Z" fill="#25CDC8"/>
<path d="M217.384 66.0842L210.359 58.6183L221.25 48.3706L228.275 55.8365L217.384 66.0842ZM211.737 58.4043L217.681 64.7216L226.897 56.0505L220.953 49.7332L211.737 58.4043Z" fill="#25CDC8"/>
<path d="M462.025 403.714L455 396.248L465.892 386L472.916 393.466L462.025 403.714ZM456.378 396.034L462.322 402.351L471.538 393.68L465.594 387.363L456.378 396.034Z" fill="#25CDC8"/>
<path d="M88.7425 488.654L74.9999 474.048L96.3076 454L110.05 468.606L88.7425 488.654ZM77.6961 473.63L89.3245 485.989L107.354 469.025L95.7257 456.666L77.6961 473.63Z" fill="#25CDC8"/>
<path d="M929.218 310.908L919 300.048L934.843 285.142L945.061 296.002L929.218 310.908ZM921.004 299.737L929.651 308.926L943.056 296.313L934.41 287.124L921.004 299.737Z" fill="#25CDC8"/>
<path d="M708.218 107.767L698 96.9065L713.843 82L724.061 92.86L708.218 107.767ZM700.004 96.5952L708.651 105.784L722.056 93.1713L713.41 83.982L700.004 96.5952Z" fill="#25CDC8"/>
<path d="M1118.74 492.596L1124.51 467L1090.77 472.007L1085 497.603L1118.74 492.596Z" fill="#8765DD"/>
<path d="M1084.91 509.848L1065 488.395L1092.36 463L1112.27 484.453L1084.91 509.848ZM1068.64 488.092L1085.49 506.244L1108.63 484.756L1091.78 466.604L1068.64 488.092Z" fill="#25CDC8"/>
<path d="M383.266 68.3205L386.836 52.4761L365.951 55.5754L362.38 71.4199L383.266 68.3205Z" fill="#8765DD"/>
<path d="M362.327 79L350 65.7204L366.934 50L379.262 63.2796L362.327 79ZM352.251 65.5326L362.682 76.7692L377.011 63.4674L366.58 52.2308L352.251 65.5326Z" fill="#25CDC8"/>
<path d="M250.679 494.769L261.971 444.66L186.292 455.89L175 506L250.679 494.769Z" fill="#25CDC8"/>
<path d="M315.489 449.606C315.489 456.846 312.356 463.924 306.485 469.944C300.615 475.964 292.271 480.656 282.509 483.426C272.746 486.197 262.004 486.922 251.641 485.509C241.277 484.097 231.758 480.611 224.286 475.491C216.815 470.372 211.726 463.849 209.665 456.748C207.603 449.647 208.661 442.287 212.705 435.598C216.749 428.909 223.596 423.192 232.382 419.169C241.168 415.147 251.497 413 262.064 413C276.228 413.011 289.808 416.871 299.823 423.734C309.839 430.597 315.473 439.901 315.489 449.606ZM217.543 449.606C217.543 455.64 220.154 461.538 225.046 466.554C229.938 471.571 236.891 475.481 245.026 477.79C253.161 480.098 262.113 480.703 270.749 479.526C279.386 478.349 287.319 475.443 293.545 471.177C299.771 466.911 304.011 461.475 305.729 455.558C307.447 449.64 306.566 443.507 303.196 437.932C299.826 432.358 294.12 427.594 286.798 424.242C279.477 420.89 270.869 419.101 262.064 419.101C250.26 419.11 238.944 422.327 230.597 428.046C222.251 433.765 217.556 441.519 217.543 449.606Z" fill="white"/>
<path d="M1093.68 342.769L1104.97 292.66L1029.29 303.89L1018 354L1093.68 342.769Z" fill="#25CDC8"/>
<path d="M1158.49 297.606C1158.49 304.846 1155.36 311.924 1149.49 317.944C1143.61 323.964 1135.27 328.656 1125.51 331.426C1115.75 334.197 1105 334.922 1094.64 333.509C1084.28 332.097 1074.76 328.611 1067.29 323.491C1059.81 318.372 1054.73 311.849 1052.66 304.748C1050.6 297.647 1051.66 290.287 1055.7 283.598C1059.75 276.909 1066.6 271.192 1075.38 267.169C1084.17 263.147 1094.5 261 1105.06 261C1119.23 261.011 1132.81 264.871 1142.82 271.734C1152.84 278.597 1158.47 287.901 1158.49 297.606V297.606ZM1060.54 297.606C1060.54 303.64 1063.15 309.538 1068.05 314.554C1072.94 319.571 1079.89 323.481 1088.03 325.79C1096.16 328.098 1105.11 328.703 1113.75 327.526C1122.39 326.349 1130.32 323.443 1136.54 319.177C1142.77 314.911 1147.01 309.475 1148.73 303.558C1150.45 297.64 1149.57 291.507 1146.2 285.932C1142.83 280.358 1137.12 275.594 1129.8 272.242C1122.48 268.89 1113.87 267.101 1105.06 267.101C1093.26 267.11 1081.94 270.327 1073.6 276.046C1065.25 281.765 1060.56 289.519 1060.54 297.606V297.606Z" fill="white"/>
<path d="M895.628 76.0117L900.048 56.3943L870.421 60.7909L866 80.4084L895.628 76.0117Z" fill="#25CDC8"/>
<path d="M921 58.3309C921 61.1653 919.773 63.936 917.475 66.2927C915.177 68.6494 911.91 70.4863 908.088 71.571C904.267 72.6557 900.061 72.9395 896.004 72.3865C891.947 71.8335 888.22 70.4687 885.295 68.4644C882.37 66.4602 880.378 63.9066 879.571 61.1267C878.764 58.3468 879.178 55.4653 880.761 52.8466C882.344 50.228 885.025 47.9898 888.464 46.4151C891.904 44.8404 895.948 43.9999 900.084 43.9999C905.63 44.0042 910.946 45.5155 914.867 48.2021C918.788 50.8888 920.994 54.5314 921 58.3309ZM882.655 58.3309C882.655 60.6929 883.677 63.0019 885.592 64.9658C887.508 66.9297 890.23 68.4604 893.414 69.3643C896.599 70.2682 900.104 70.5047 903.485 70.0439C906.866 69.5831 909.971 68.4457 912.409 66.7755C914.847 65.1053 916.507 62.9774 917.179 60.6608C917.852 58.3442 917.506 55.9429 916.187 53.7607C914.868 51.5785 912.634 49.7133 909.768 48.4011C906.901 47.0888 903.532 46.3884 900.084 46.3884C895.463 46.3919 891.033 47.6513 887.766 49.8902C884.498 52.129 882.66 55.1646 882.655 58.3309Z" fill="white"/>
<path d="M269.628 131.012L274.048 111.394L244.421 115.791L240 135.408L269.628 131.012Z" fill="#25CDC8"/>
<path d="M295 113.331C295 116.165 293.773 118.936 291.475 121.293C289.177 123.649 285.91 125.486 282.088 126.571C278.267 127.656 274.061 127.939 270.004 127.386C265.947 126.834 262.22 125.469 259.295 123.464C256.37 121.46 254.378 118.907 253.571 116.127C252.764 113.347 253.178 110.465 254.761 107.847C256.344 105.228 259.025 102.99 262.464 101.415C265.904 99.8404 269.948 98.9999 274.084 98.9999C279.63 99.0042 284.946 100.516 288.867 103.202C292.788 105.889 294.994 109.531 295 113.331V113.331ZM256.655 113.331C256.655 115.693 257.677 118.002 259.592 119.966C261.508 121.93 264.23 123.46 267.414 124.364C270.599 125.268 274.104 125.505 277.485 125.044C280.866 124.583 283.971 123.446 286.409 121.775C288.847 120.105 290.507 117.977 291.179 115.661C291.852 113.344 291.506 110.943 290.187 108.761C288.868 106.578 286.634 104.713 283.768 103.401C280.901 102.089 277.532 101.388 274.084 101.388C269.463 101.392 265.033 102.651 261.766 104.89C258.498 107.129 256.66 110.165 256.655 113.331V113.331Z" fill="white"/>
<path d="M67.6276 48.0117L72.0483 28.3943L42.4209 32.7909L38.0001 52.4084L67.6276 48.0117Z" fill="#8765DD"/>
<path d="M92.9999 30.3309C92.9999 33.1653 91.7732 35.936 89.475 38.2927C87.1768 40.6494 83.9102 42.4863 80.0884 43.571C76.2666 44.6557 72.0612 44.9395 68.004 44.3865C63.9468 43.8335 60.2201 42.4687 57.295 40.4644C54.3699 38.4602 52.3779 35.9066 51.5708 33.1267C50.7638 30.3468 51.178 27.4653 52.761 24.8466C54.3441 22.228 57.0249 19.9898 60.4644 18.4151C63.904 16.8404 67.9478 15.9999 72.0845 15.9999C77.6297 16.0042 82.9459 17.5155 86.8669 20.2021C90.788 22.8888 92.9936 26.5314 92.9999 30.3309ZM54.6549 30.3309C54.6549 32.6929 55.6772 35.0019 57.5924 36.9658C59.5075 38.9297 62.2296 40.4604 65.4145 41.3643C68.5993 42.2682 72.1038 42.5047 75.4848 42.0439C78.8658 41.5831 81.9714 40.4457 84.409 38.7755C86.8466 37.1053 88.5065 34.9774 89.179 32.6608C89.8516 30.3442 89.5064 27.9429 88.1872 25.7607C86.868 23.5785 84.634 21.7133 81.7678 20.4011C78.9015 19.0888 75.5317 18.3884 72.0845 18.3884C67.4635 18.3919 63.0332 19.6513 59.7656 21.8902C56.4981 24.129 54.6601 27.1646 54.6549 30.3309Z" fill="white"/>
<path d="M492.628 332.012L497.048 312.394L467.421 316.791L463 336.408L492.628 332.012Z" fill="#8765DD"/>
<path d="M518 314.331C518 317.165 516.773 319.936 514.475 322.293C512.177 324.65 508.91 326.486 505.088 327.571C501.267 328.656 497.061 328.94 493.004 328.387C488.947 327.834 485.22 326.469 482.295 324.465C479.37 322.46 477.378 319.907 476.571 317.127C475.764 314.347 476.178 311.465 477.761 308.847C479.344 306.228 482.025 303.99 485.464 302.415C488.904 300.84 492.948 300 497.084 300C502.63 300.004 507.946 301.516 511.867 304.202C515.788 306.889 517.994 310.532 518 314.331V314.331ZM479.655 314.331C479.655 316.693 480.677 319.002 482.592 320.966C484.508 322.93 487.23 324.46 490.414 325.364C493.599 326.268 497.104 326.505 500.485 326.044C503.866 325.583 506.971 324.446 509.409 322.776C511.847 321.105 513.507 318.978 514.179 316.661C514.852 314.344 514.506 311.943 513.187 309.761C511.868 307.579 509.634 305.713 506.768 304.401C503.901 303.089 500.532 302.389 497.084 302.389C492.463 302.392 488.033 303.651 484.766 305.89C481.498 308.129 479.66 311.165 479.655 314.331V314.331Z" fill="white"/>
<path d="M734.343 268.376L737.556 221L699.213 232.913L696 280.289L734.343 268.376Z" fill="#8765DD"/>
<path d="M762.52 193.822L755.178 248.741L705.409 268.508L712.751 213.589L762.52 193.822ZM751.914 246.037L758.127 199.567L716.014 216.293L709.802 262.763L751.914 246.037Z" fill="white"/>
<path d="M75.2485 276.827L76.8599 253.067L57.6299 259.042L56.0185 282.802L75.2485 276.827Z" fill="#8765DD"/>
<path d="M89.3794 239.437L85.6972 266.98L60.7368 276.893L64.419 249.35L89.3794 239.437ZM84.0604 265.624L87.1761 242.318L66.0557 250.707L62.94 274.012L84.0604 265.624Z" fill="white"/>
<path d="M1150.25 59.8271L1151.86 36.0671L1132.63 42.042L1131.02 65.802L1150.25 59.8271Z" fill="#8765DD"/>
<path d="M1164.38 22.4366L1160.7 49.9797L1135.74 59.8933L1139.42 32.3503L1164.38 22.4366ZM1159.06 48.6235L1162.18 25.3179L1141.06 33.7064L1137.94 57.0121L1159.06 48.6235Z" fill="white"/>
</svg>
