<svg width="1440" height="307" viewBox="0 0 1440 307" fill="none" xmlns="http://www.w3.org/2000/svg">
<path d="M328.743 251.654L315 237.048L336.308 217L350.05 231.606L328.743 251.654ZM317.696 236.63L329.324 248.989L347.354 232.025L335.726 219.666L317.696 236.63Z" fill="#136F63"/>
<path d="M1221.74 73.6542L1208 59.0482L1229.31 39L1243.05 53.606L1221.74 73.6542ZM1210.7 58.6296L1222.32 70.9885L1240.35 54.0246L1228.73 41.6657L1210.7 58.6296Z" fill="#D8EB66"/>
<path d="M888.248 174.54C888.248 175.438 887.859 176.316 887.131 177.063C886.403 177.81 885.369 178.392 884.159 178.735C882.948 179.079 881.616 179.169 880.332 178.994C879.047 178.818 877.866 178.386 876.94 177.751C876.014 177.116 875.383 176.307 875.127 175.426C874.872 174.545 875.003 173.633 875.504 172.803C876.006 171.973 876.855 171.264 877.944 170.765C879.033 170.266 880.314 170 881.624 170C883.38 170.001 885.064 170.48 886.305 171.331C887.547 172.183 888.246 173.337 888.248 174.54ZM876.104 174.54C876.104 175.289 876.428 176.02 877.034 176.643C877.641 177.265 878.503 177.75 879.511 178.036C880.52 178.323 881.63 178.397 882.701 178.251C883.771 178.105 884.755 177.745 885.527 177.216C886.299 176.687 886.825 176.013 887.038 175.279C887.25 174.545 887.141 173.784 886.723 173.092C886.306 172.401 885.598 171.81 884.69 171.394C883.783 170.979 882.716 170.757 881.624 170.757C880.16 170.758 878.757 171.157 877.723 171.866C876.688 172.576 876.106 173.537 876.104 174.54Z" fill="white"/>
<path d="M190.248 72.5405C190.248 73.4385 189.859 74.3163 189.131 75.063C188.403 75.8097 187.369 76.3917 186.159 76.7353C184.948 77.079 183.616 77.1689 182.332 76.9937C181.047 76.8185 179.866 76.3861 178.94 75.7511C178.014 75.1161 177.383 74.307 177.127 73.4263C176.872 72.5455 177.003 71.6325 177.504 70.8029C178.006 69.9732 178.855 69.2641 179.944 68.7652C181.033 68.2663 182.314 68 183.624 68C185.38 68.0014 187.064 68.4802 188.305 69.3314C189.547 70.1826 190.246 71.3367 190.248 72.5405ZM178.104 72.5405C178.104 73.2888 178.428 74.0204 179.034 74.6426C179.641 75.2648 180.503 75.7498 181.511 76.0362C182.52 76.3225 183.63 76.3975 184.701 76.2515C185.771 76.1055 186.755 75.7451 187.527 75.216C188.299 74.6868 188.825 74.0126 189.038 73.2786C189.25 72.5447 189.141 71.7839 188.723 71.0925C188.306 70.4011 187.598 69.8102 186.69 69.3944C185.783 68.9786 184.716 68.7567 183.624 68.7567C182.16 68.7578 180.757 69.1568 179.723 69.8662C178.688 70.5755 178.106 71.5373 178.104 72.5405Z" fill="white"/>
<path d="M381.535 83.1158L388.505 108.122L419.499 85.0061L412.529 60L381.535 83.1158Z" fill="#136F63"/>
<path d="M363.501 118.732C361.768 115.51 361.468 111.61 362.64 107.525C363.811 103.44 366.402 99.3545 370.083 95.7843C373.765 92.2141 378.373 89.3199 383.323 87.4675C388.274 85.6152 393.345 84.888 397.897 85.3779C402.448 85.8677 406.274 87.5527 408.891 90.2197C411.509 92.8866 412.8 96.4158 412.602 100.361C412.403 104.306 410.724 108.49 407.777 112.384C404.829 116.277 400.746 119.705 396.043 122.235C389.736 125.621 382.768 127.154 376.667 126.497C370.566 125.84 365.831 123.048 363.501 118.732V118.732ZM407.095 95.2841C405.65 92.5988 403.076 90.5988 399.698 89.5372C396.32 88.4756 392.289 88.4 388.115 89.3199C383.942 90.2398 379.813 92.1139 376.251 94.7053C372.689 97.2967 369.854 100.489 368.104 103.878C366.354 107.268 365.768 110.702 366.42 113.747C367.072 116.792 368.933 119.311 371.767 120.985C374.601 122.659 378.282 123.414 382.343 123.153C386.404 122.892 390.663 121.628 394.582 119.52C399.834 116.69 404.1 112.549 406.446 108.005C408.792 103.462 409.025 98.887 407.095 95.2841V95.2841Z" fill="white" fill-opacity="0.5"/>
<path d="M984.461 38.3278L991.603 63.2855L1022.44 39.9577L1015.3 15L984.461 38.3278Z" fill="#D8EB66"/>
<path d="M966.672 74.0672C964.917 70.8568 964.591 66.9588 965.734 62.8662C966.878 58.7735 969.44 54.67 973.097 51.0747C976.754 47.4793 981.342 44.5535 986.28 42.6672C991.218 40.781 996.284 40.019 1000.84 40.4776C1005.39 40.9363 1009.23 42.595 1011.87 45.2439C1014.5 47.8929 1015.82 51.4131 1015.65 55.3595C1015.47 59.3059 1013.82 63.5013 1010.9 67.415C1007.98 71.3286 1003.92 74.7849 999.237 77.3467C992.954 80.7758 985.997 82.3564 979.892 81.7416C973.787 81.1268 969.032 78.3668 966.672 74.0672V74.0672ZM1010.1 50.3206C1008.64 47.6452 1006.05 45.663 1002.67 44.6246C999.283 43.5861 995.252 43.5382 991.084 44.4867C986.917 45.4352 982.802 47.3376 979.257 49.9533C975.713 52.5691 972.9 55.7807 971.173 59.182C969.447 62.5834 968.884 66.0215 969.557 69.062C970.23 72.1024 972.108 74.6085 974.954 76.2633C977.799 77.918 981.485 78.6471 985.544 78.3584C989.603 78.0697 993.854 76.7762 997.758 74.6413C1002.99 71.7756 1007.23 67.6056 1009.54 63.0461C1011.86 58.4866 1012.06 53.9101 1010.1 50.3206V50.3206Z" fill="white" fill-opacity="0.5"/>
<path d="M1398.94 120.809L1371.48 109.899L1382.18 155.222L1409.64 166.132L1398.94 120.809Z" fill="#136F63"/>
<path d="M1221.25 170.54C1221.25 171.438 1220.86 172.316 1220.13 173.063C1219.4 173.81 1218.37 174.392 1217.16 174.735C1215.95 175.079 1214.62 175.169 1213.33 174.994C1212.05 174.818 1210.87 174.386 1209.94 173.751C1209.01 173.116 1208.38 172.307 1208.13 171.426C1207.87 170.545 1208 169.633 1208.5 168.803C1209.01 167.973 1209.85 167.264 1210.94 166.765C1212.03 166.266 1213.31 166 1214.62 166C1216.38 166.001 1218.06 166.48 1219.31 167.331C1220.55 168.183 1221.25 169.337 1221.25 170.54V170.54ZM1209.1 170.54C1209.1 171.289 1209.43 172.02 1210.03 172.643C1210.64 173.265 1211.5 173.75 1212.51 174.036C1213.52 174.323 1214.63 174.397 1215.7 174.251C1216.77 174.105 1217.75 173.745 1218.53 173.216C1219.3 172.687 1219.82 172.013 1220.04 171.279C1220.25 170.545 1220.14 169.784 1219.72 169.092C1219.31 168.401 1218.6 167.81 1217.69 167.394C1216.78 166.979 1215.72 166.757 1214.62 166.757C1213.16 166.758 1211.76 167.157 1210.72 167.866C1209.69 168.576 1209.11 169.537 1209.1 170.54V170.54Z" fill="white"/>
<path d="M65.3432 200.376L68.5562 153L30.2131 164.913L27.0001 212.289L65.3432 200.376Z" fill="#D8EB66"/>
<path d="M93.52 125.822L86.1779 180.741L36.4087 200.508L43.7508 145.589L93.52 125.822ZM82.9142 178.037L89.1268 131.567L47.0143 148.293L40.8019 194.763L82.9142 178.037Z" fill="white" fill-opacity="0.5"/>
<path d="M1125.69 164.709C1133.55 167.618 1139.86 174.181 1143.82 183.57C1147.78 192.958 1149.21 204.749 1147.93 217.452C1146.65 230.155 1142.72 243.199 1136.64 254.935C1130.55 266.671 1122.58 276.572 1113.74 283.385C1104.9 290.199 1095.58 293.619 1086.96 293.213C1078.35 292.807 1070.82 288.594 1065.33 281.105C1059.84 273.617 1056.64 263.19 1056.13 251.144C1055.62 239.097 1057.82 225.971 1062.47 213.427C1068.7 196.615 1078.86 182.045 1090.71 172.911C1102.56 163.778 1115.14 160.828 1125.69 164.709V164.709ZM1082.67 280.991C1089.22 283.415 1096.77 282.685 1104.37 278.893C1111.97 275.101 1119.27 268.417 1125.35 259.686C1131.43 250.956 1136.02 240.571 1138.53 229.845C1141.05 219.12 1141.37 208.534 1139.48 199.428C1137.58 190.322 1133.54 183.104 1127.86 178.687C1122.19 174.27 1115.14 172.852 1107.61 174.613C1100.08 176.373 1092.4 181.234 1085.54 188.579C1078.68 195.924 1072.96 205.424 1069.09 215.878C1063.92 229.895 1062.44 244.623 1064.99 256.829C1067.53 269.036 1073.89 277.726 1082.67 280.991V280.991Z" fill="white" fill-opacity="0.48"/>
</svg>
