<svg width="1440" height="294" viewBox="0 0 1440 294" fill="none" xmlns="http://www.w3.org/2000/svg">
<path d="M328.743 251.654L315 237.048L336.308 217L350.05 231.606L328.743 251.654ZM317.696 236.63L329.324 248.989L347.354 232.025L335.726 219.666L317.696 236.63Z" fill="#FFBD3E"/>
<path d="M1221.74 73.6542L1208 59.0482L1229.31 39L1243.05 53.606L1221.74 73.6542ZM1210.7 58.6296L1222.32 70.9885L1240.35 54.0246L1228.73 41.6657L1210.7 58.6296Z" fill="#725ABD"/>
<path d="M888.248 174.541C888.248 175.439 887.859 176.316 887.131 177.063C886.403 177.81 885.369 178.392 884.159 178.735C882.948 179.079 881.616 179.169 880.332 178.994C879.047 178.819 877.866 178.386 876.94 177.751C876.014 177.116 875.383 176.307 875.127 175.426C874.872 174.546 875.003 173.633 875.504 172.803C876.006 171.973 876.855 171.264 877.944 170.765C879.033 170.266 880.314 170 881.624 170C883.38 170.001 885.064 170.48 886.305 171.332C887.547 172.183 888.246 173.337 888.248 174.541ZM876.104 174.541C876.104 175.289 876.428 176.02 877.034 176.643C877.641 177.265 878.503 177.75 879.511 178.036C880.52 178.323 881.63 178.398 882.701 178.252C883.771 178.106 884.755 177.745 885.527 177.216C886.299 176.687 886.825 176.013 887.038 175.279C887.25 174.545 887.141 173.784 886.723 173.093C886.306 172.401 885.598 171.81 884.69 171.395C883.783 170.979 882.716 170.757 881.624 170.757C880.16 170.758 878.757 171.157 877.723 171.866C876.688 172.576 876.106 173.537 876.104 174.541Z" fill="white"/>
<path d="M190.248 72.5406C190.248 73.4386 189.859 74.3164 189.131 75.0631C188.403 75.8098 187.369 76.3918 186.159 76.7354C184.948 77.0791 183.616 77.169 182.332 76.9938C181.047 76.8186 179.866 76.3862 178.94 75.7512C178.014 75.1162 177.383 74.3071 177.127 73.4264C176.872 72.5456 177.003 71.6327 177.504 70.803C178.006 69.9733 178.855 69.2642 179.944 68.7653C181.033 68.2664 182.314 68.0001 183.624 68.0001C185.38 68.0015 187.064 68.4803 188.305 69.3315C189.547 70.1827 190.246 71.3368 190.248 72.5406ZM178.104 72.5406C178.104 73.2889 178.428 74.0205 179.034 74.6427C179.641 75.2649 180.503 75.7499 181.511 76.0363C182.52 76.3227 183.63 76.3976 184.701 76.2516C185.771 76.1056 186.755 75.7452 187.527 75.2161C188.299 74.6869 188.825 74.0127 189.038 73.2788C189.25 72.5448 189.141 71.784 188.723 71.0926C188.306 70.4012 187.598 69.8103 186.69 69.3945C185.783 68.9788 184.716 68.7569 183.624 68.7569C182.16 68.758 180.757 69.157 179.723 69.8663C178.688 70.5757 178.106 71.5374 178.104 72.5406Z" fill="white"/>
<g filter="url(#filter0_d)">
<path d="M381.534 83.1155L388.505 108.122L419.499 85.0058L412.529 59.9997L381.534 83.1155Z" fill="#FFBD3E"/>
</g>
<path d="M363.501 118.732C361.767 115.51 361.468 111.61 362.639 107.525C363.811 103.44 366.401 99.3547 370.083 95.7845C373.765 92.2143 378.372 89.32 383.323 87.4677C388.274 85.6153 393.345 84.8881 397.896 85.378C402.447 85.8679 406.274 87.5528 408.891 90.2198C411.509 92.8868 412.8 96.416 412.601 100.361C412.403 104.306 410.724 108.49 407.776 112.384C404.829 116.277 400.745 119.706 396.043 122.235C389.736 125.621 382.768 127.154 376.667 126.497C370.566 125.841 365.831 123.048 363.501 118.732V118.732ZM407.094 95.2843C405.65 92.5989 403.076 90.599 399.698 89.5373C396.319 88.4757 392.289 88.4001 388.115 89.32C383.942 90.24 379.813 92.114 376.251 94.7054C372.689 97.2968 369.854 100.489 368.104 103.878C366.354 107.268 365.768 110.702 366.42 113.747C367.072 116.792 368.933 119.311 371.767 120.985C374.601 122.659 378.281 123.414 382.342 123.153C386.404 122.892 390.663 121.628 394.582 119.52C399.833 116.69 404.1 112.549 406.446 108.006C408.792 103.462 409.025 98.8871 407.094 95.2843V95.2843Z" fill="white" fill-opacity="0.5"/>
<path d="M984.461 38.328L991.603 63.2856L1022.44 39.9578L1015.3 15.0001L984.461 38.328Z" fill="#725ABD"/>
<path d="M966.672 74.0673C964.917 70.8569 964.591 66.9589 965.734 62.8663C966.878 58.7736 969.44 54.6702 973.097 51.0748C976.754 47.4794 981.342 44.5536 986.28 42.6674C991.218 40.7811 996.284 40.0191 1000.84 40.4778C1005.39 40.9364 1009.23 42.5951 1011.87 45.244C1014.5 47.893 1015.82 51.4133 1015.65 55.3597C1015.47 59.3061 1013.82 63.5014 1010.9 67.4151C1007.98 71.3288 1003.92 74.785 999.237 77.3468C992.954 80.776 985.997 82.3565 979.892 81.7417C973.787 81.1269 969.032 78.3669 966.672 74.0673V74.0673ZM1010.1 50.3207C1008.64 47.6454 1006.05 45.6631 1002.67 44.6247C999.283 43.5863 995.252 43.5383 991.084 44.4868C986.917 45.4354 982.802 47.3377 979.257 49.9534C975.713 52.5692 972.9 55.7808 971.173 59.1822C969.447 62.5835 968.884 66.0217 969.557 69.0621C970.23 72.1025 972.108 74.6086 974.954 76.2634C977.799 77.9181 981.485 78.6472 985.544 78.3585C989.603 78.0698 993.854 76.7763 997.758 74.6415C1002.99 71.7757 1007.23 67.6057 1009.54 63.0462C1011.86 58.4867 1012.06 53.9102 1010.1 50.3207V50.3207Z" fill="white" fill-opacity="0.5"/>
<path d="M1398.94 120.809L1371.48 109.899L1382.18 155.222L1409.64 166.132L1398.94 120.809Z" fill="#FFBD3E"/>
<path d="M1221.25 170.541C1221.25 171.439 1220.86 172.316 1220.13 173.063C1219.4 173.81 1218.37 174.392 1217.16 174.735C1215.95 175.079 1214.62 175.169 1213.33 174.994C1212.05 174.819 1210.87 174.386 1209.94 173.751C1209.01 173.116 1208.38 172.307 1208.13 171.426C1207.87 170.546 1208 169.633 1208.5 168.803C1209.01 167.973 1209.85 167.264 1210.94 166.765C1212.03 166.266 1213.31 166 1214.62 166C1216.38 166.001 1218.06 166.48 1219.31 167.332C1220.55 168.183 1221.25 169.337 1221.25 170.541V170.541ZM1209.1 170.541C1209.1 171.289 1209.43 172.02 1210.03 172.643C1210.64 173.265 1211.5 173.75 1212.51 174.036C1213.52 174.323 1214.63 174.398 1215.7 174.252C1216.77 174.106 1217.75 173.745 1218.53 173.216C1219.3 172.687 1219.82 172.013 1220.04 171.279C1220.25 170.545 1220.14 169.784 1219.72 169.093C1219.31 168.401 1218.6 167.81 1217.69 167.395C1216.78 166.979 1215.72 166.757 1214.62 166.757C1213.16 166.758 1211.76 167.157 1210.72 167.866C1209.69 168.576 1209.11 169.537 1209.1 170.541V170.541Z" fill="white"/>
<path d="M65.3432 200.376L68.5562 153L30.2131 164.913L27.0001 212.289L65.3432 200.376Z" fill="#725ABD"/>
<path d="M93.52 125.822L86.1779 180.741L36.4087 200.508L43.7508 145.589L93.52 125.822ZM82.9142 178.037L89.1268 131.567L47.0143 148.293L40.8019 194.763L82.9142 178.037Z" fill="white" fill-opacity="0.5"/>
<path d="M1125.69 164.708C1133.55 167.617 1139.86 174.181 1143.82 183.569C1147.78 192.958 1149.21 204.749 1147.93 217.452C1146.65 230.155 1142.72 243.199 1136.64 254.935C1130.55 266.671 1122.58 276.572 1113.74 283.385C1104.9 290.198 1095.58 293.619 1086.96 293.213C1078.35 292.807 1070.82 288.593 1065.33 281.105C1059.84 273.617 1056.64 263.19 1056.13 251.143C1055.62 239.097 1057.82 225.971 1062.47 213.426C1068.7 196.615 1078.86 182.044 1090.71 172.911C1102.56 163.778 1115.14 160.828 1125.69 164.708V164.708ZM1082.67 280.991C1089.22 283.415 1096.77 282.685 1104.37 278.893C1111.97 275.1 1119.27 268.416 1125.35 259.686C1131.43 250.956 1136.02 240.571 1138.53 229.845C1141.05 219.119 1141.37 208.534 1139.48 199.428C1137.58 190.321 1133.54 183.104 1127.86 178.687C1122.19 174.269 1115.14 172.852 1107.61 174.612C1100.08 176.373 1092.4 181.234 1085.54 188.579C1078.68 195.924 1072.96 205.424 1069.09 215.878C1063.92 229.895 1062.44 244.622 1064.99 256.829C1067.53 269.036 1073.89 277.725 1082.67 280.991V280.991Z" fill="white" fill-opacity="0.48"/>
<defs>
<filter id="filter0_d" x="377.534" y="59.9995" width="45.9648" height="56.1219" filterUnits="userSpaceOnUse" color-interpolation-filters="sRGB">
<feFlood flood-opacity="0" result="BackgroundImageFix"/>
<feColorMatrix in="SourceAlpha" type="matrix" values="0 0 0 0 0 0 0 0 0 0 0 0 0 0 0 0 0 0 127 0"/>
<feOffset dy="4"/>
<feGaussianBlur stdDeviation="2"/>
<feColorMatrix type="matrix" values="0 0 0 0 0 0 0 0 0 0 0 0 0 0 0 0 0 0 0.25 0"/>
<feBlend mode="normal" in2="BackgroundImageFix" result="effect1_dropShadow"/>
<feBlend mode="normal" in="SourceGraphic" in2="effect1_dropShadow" result="shape"/>
</filter>
</defs>
</svg>
