<svg width="102" height="120" viewBox="0 0 102 120" fill="none" xmlns="http://www.w3.org/2000/svg">
<path d="M54.2212 118.803C56.8312 113.973 53.8712 108.043 50.4612 103.733C47.0512 99.4226 42.9112 94.9426 43.0012 89.4426C43.1212 81.5526 51.5011 76.8926 58.2011 72.7026C63.168 69.5899 67.7468 65.8973 71.8412 61.7026C73.5615 60.0954 74.9835 58.196 76.0411 56.0926C77.4211 53.0026 77.3811 49.4926 77.3011 46.0926C77.0145 34.8259 76.4579 23.5726 75.6312 12.3326" stroke="#3F3D56" stroke-width="4" stroke-miterlimit="10"/>
<path d="M88.3512 11.7326C88.2559 9.67214 87.6435 7.66883 86.5704 5.90726C85.4974 4.14569 83.9983 2.68252 82.2112 1.65256L79.4512 7.10257L79.5311 0.502598C78.2346 0.116448 76.8825 -0.0491802 75.5311 0.0126081C73.099 0.126044 70.7551 0.958156 68.7959 2.40378C66.8367 3.84941 65.3501 5.84357 64.5243 8.13407C63.6985 10.4246 63.5705 12.9086 64.1565 15.2718C64.7425 17.6351 66.0162 19.7715 67.8164 21.4109C69.6166 23.0502 71.8625 24.1189 74.2702 24.4817C76.6778 24.8446 79.139 24.4853 81.3424 23.4494C83.5459 22.4134 85.3926 20.7472 86.6491 18.6617C87.9055 16.5761 88.5152 14.1647 88.4011 11.7326H88.3512Z" fill="#6C63FF"/>
<path d="M66.401 95.0627C65.1098 97.5741 62.9945 99.5652 60.4095 100.702C57.8246 101.839 54.9273 102.053 52.2036 101.307C49.4799 100.562 47.0952 98.9026 45.4496 96.6078C43.8039 94.313 42.9974 91.5221 43.165 88.7031C43.3327 85.8842 44.4644 83.2087 46.3705 81.1251C48.2766 79.0415 50.841 77.6766 53.6339 77.2592C56.4268 76.8419 59.2783 77.3974 61.7102 78.8328C64.1421 80.2681 66.0067 82.496 66.9911 85.1427L59.301 91.4027L67.7611 89.4027C67.7695 91.3712 67.3029 93.3129 66.401 95.0627Z" fill="#6C63FF"/>
<path d="M60.3212 71.1527C57.2991 71.298 54.3293 70.3253 51.9788 68.4202C49.6283 66.5151 48.0618 63.8111 47.5782 60.8244C47.0946 57.8377 47.728 54.7775 49.3572 52.228C50.9865 49.6785 53.4976 47.8184 56.4112 47.0027L56.3513 52.0727L59.1413 46.5627C62.403 46.4134 65.5905 47.5649 68.0037 49.7643C70.4169 51.9637 71.8583 55.0312 72.0113 58.2927C72.0879 59.9076 71.8454 61.5217 71.2977 63.0428C70.75 64.5638 69.9078 65.9621 68.8193 67.1574C67.7308 68.3527 66.4172 69.3217 64.9539 70.0089C63.4906 70.6962 61.9062 71.0883 60.2912 71.1627L60.3212 71.1527Z" fill="#6C63FF"/>
<path d="M90.2015 51.2726C88.2931 51.3698 86.3884 51.0214 84.638 50.255C82.8876 49.4886 81.3397 48.3253 80.1168 46.8571C78.8938 45.3889 78.0294 43.6561 77.5921 41.796C77.1548 39.9359 77.1565 37.9995 77.5971 36.1402C78.0377 34.2809 78.9051 32.5496 80.1306 31.0836C81.356 29.6175 82.9059 28.4568 84.6577 27.6935C86.4094 26.9302 88.3148 26.5851 90.223 26.6856C92.1311 26.7861 93.9896 27.3294 95.6514 28.2726L93.4715 34.2726L97.9515 29.9726C99.1451 31.0562 100.113 32.3649 100.799 33.8236C101.486 35.2823 101.877 36.8622 101.951 38.4726C102.011 39.6116 101.907 40.7534 101.642 41.8626C101.014 44.4603 99.5591 46.7833 97.4953 48.4809C95.4315 50.1785 92.8713 51.1584 90.2015 51.2726Z" fill="#6C63FF"/>
<path opacity="0.1" d="M86.7013 15.0127C83.8613 15.3327 81.0913 16.2127 78.2413 16.3927C75.3913 16.5727 72.2413 15.8827 70.4513 13.6627C69.615 12.3761 68.8569 11.0404 68.1813 9.66266C67.401 8.4515 66.3369 7.44917 65.0813 6.74268C64.2834 8.30324 63.8279 10.0162 63.7454 11.767C63.6628 13.5177 63.955 15.266 64.6025 16.8947C65.2501 18.5234 66.238 19.9951 67.5001 21.2112C68.7623 22.4274 70.2695 23.36 71.9211 23.9467C73.5728 24.5333 75.3306 24.7606 77.0771 24.6132C78.8237 24.4657 80.5186 23.947 82.0485 23.0917C83.5783 22.2365 84.908 21.0644 85.9484 19.6539C86.9888 18.2433 87.716 16.6269 88.0813 14.9127C87.6213 14.9327 87.1613 14.9627 86.7013 15.0127Z" fill="black"/>
<path opacity="0.1" d="M90.2012 51.2726C88.0796 51.3702 85.9688 50.9177 84.0737 49.959C82.1786 49.0003 80.5636 47.5679 79.3852 45.801C78.2069 44.034 77.5054 41.9924 77.3487 39.8743C77.1921 37.7563 77.5856 35.6337 78.4912 33.7126C79.4698 34.3679 80.3119 35.2068 80.9712 36.1827C81.7022 37.5871 82.5169 38.9462 83.4111 40.2527C85.3211 42.5127 88.6012 43.2527 91.5712 43.1127C94.5412 42.9727 97.4112 42.1127 100.371 41.8627C100.781 41.8627 101.201 41.7927 101.611 41.7827C101.001 44.3904 99.5562 46.7278 97.4971 48.4404C95.438 50.153 92.8765 51.1474 90.2012 51.2726Z" fill="black"/>
<path opacity="0.1" d="M60.3213 71.1526C58.2171 71.2555 56.1219 70.8164 54.2362 69.8771C52.3505 68.9379 50.7376 67.53 49.5522 65.7885C48.3668 64.047 47.6486 62.0303 47.4663 59.9315C47.284 57.8328 47.6439 55.7224 48.5113 53.8026C49.5203 54.474 50.4009 55.3207 51.1113 56.3026C52.1113 57.6526 52.6612 59.2126 53.7812 60.4526C55.8612 62.7726 59.3513 63.5826 62.5013 63.5126C65.6513 63.4426 68.5013 62.6926 71.5013 62.4626C70.759 64.8857 69.2868 67.0208 67.2859 68.576C65.2849 70.1313 62.8527 71.0311 60.3213 71.1526Z" fill="black"/>
<path opacity="0.1" d="M66.4013 95.0625C64.9331 97.8092 62.4793 99.8978 59.5333 100.908C56.5874 101.919 53.3681 101.776 50.5232 100.509C47.6783 99.2416 45.4188 96.9439 44.1995 94.0781C42.9802 91.2123 42.8915 87.991 43.9513 85.0625C44.9674 85.7254 45.8776 86.5379 46.6513 87.4725C47.8313 88.9025 48.6513 90.4725 49.9513 91.8525C52.4713 94.3225 56.5313 95.3325 60.1513 95.4325C62.24 95.4303 64.3268 95.3067 66.4013 95.0625Z" fill="black"/>
<path d="M33.1976 116.802C31.3829 113.721 33.441 109.937 35.8119 107.187C38.1829 104.437 41.0613 101.578 40.9988 98.0692C40.9153 93.0349 35.0888 90.0616 30.4304 87.3882C26.977 85.4021 23.7934 83.046 20.9466 80.3696C19.7505 79.344 18.7618 78.1321 18.0264 76.79C17.0669 74.8184 17.0947 72.5789 17.1504 70.4095C17.3497 63.2207 17.7367 56.0405 18.3114 48.8688" stroke="#3F3D56" stroke-width="4" stroke-miterlimit="10"/>
<path d="M9.46711 48.486C9.53341 47.1714 9.9592 45.8931 10.7053 44.7692C11.4513 43.6452 12.4937 42.7116 13.7362 42.0544L15.6552 45.5318L15.5996 41.3207C16.5011 41.0743 17.4412 40.9686 18.3808 41.008C20.0718 41.0804 21.7015 41.6114 23.0637 42.5337C24.4259 43.4561 25.4595 44.7285 26.0337 46.19C26.6079 47.6514 26.6969 49.2364 26.2894 50.7443C25.882 52.2522 24.9964 53.6153 23.7447 54.6613C22.4931 55.7073 20.9315 56.3892 19.2575 56.6207C17.5835 56.8522 15.8723 56.623 14.3402 55.962C12.8082 55.301 11.5242 54.2379 10.6506 52.9072C9.77699 51.5764 9.3531 50.0379 9.4324 48.486H9.46711Z" fill="#6C63FF"/>
<path d="M24.7288 101.655C25.6266 103.258 27.0974 104.528 28.8946 105.254C30.6919 105.979 32.7063 106.115 34.6001 105.64C36.4939 105.164 38.1519 104.105 39.2961 102.641C40.4403 101.177 41.0011 99.3962 40.8846 97.5976C40.768 95.799 39.9811 94.0918 38.6558 92.7624C37.3306 91.4329 35.5475 90.562 33.6057 90.2957C31.6638 90.0294 29.6812 90.3839 27.9903 91.2998C26.2994 92.2156 25.003 93.6371 24.3185 95.3258L29.6654 99.32L23.7832 98.0439C23.7773 99.3 24.1017 100.539 24.7288 101.655Z" fill="#6C63FF"/>
<path d="M28.9561 86.3994C31.0574 86.4921 33.1222 85.8715 34.7565 84.6559C36.3908 83.4404 37.48 81.7151 37.8162 79.8094C38.1524 77.9037 37.7121 75.9511 36.5793 74.3244C35.4464 72.6977 33.7005 71.5109 31.6747 70.9904L31.7164 74.2253L29.7765 70.7097C27.5087 70.6144 25.2924 71.3491 23.6146 72.7524C21.9367 74.1558 20.9345 76.113 20.8281 78.194C20.7749 79.2244 20.9435 80.2543 21.3243 81.2248C21.7051 82.1954 22.2907 83.0875 23.0475 83.8502C23.8043 84.6129 24.7176 85.2311 25.7351 85.6696C26.7525 86.1082 27.8541 86.3583 28.977 86.4058L28.9561 86.3994Z" fill="#6C63FF"/>
<path d="M8.18096 73.7146C9.50781 73.7766 10.8322 73.5543 12.0492 73.0653C13.2662 72.5763 14.3425 71.834 15.1928 70.8972C16.0431 69.9604 16.6441 68.8548 16.9481 67.668C17.2522 66.4811 17.251 65.2456 16.9446 64.0593C16.6383 62.8729 16.0352 61.7683 15.1832 60.8329C14.3311 59.8974 13.2535 59.1569 12.0355 58.6698C10.8176 58.1828 9.49275 57.9626 8.16602 58.0267C6.83929 58.0909 5.54711 58.4375 4.39166 59.0393L5.90735 62.8677L2.79246 60.124C1.96253 60.8154 1.28962 61.6505 0.812346 62.5812C0.335072 63.5119 0.0628357 64.52 0.0113029 65.5475C-0.0303726 66.2743 0.0421753 67.0027 0.226797 67.7105C0.662809 69.368 1.6747 70.8502 3.10964 71.9333C4.54457 73.0165 6.32466 73.6417 8.18096 73.7146Z" fill="#6C63FF"/>
<path opacity="0.1" d="M10.6139 50.579C12.5886 50.7832 14.5145 51.3446 16.4961 51.4595C18.4776 51.5743 20.6678 51.1341 21.9124 49.7176C22.4939 48.8967 23.021 48.0444 23.4907 47.1654C24.0332 46.3926 24.7731 45.753 25.6461 45.3022C26.2009 46.298 26.5176 47.3909 26.575 48.508C26.6324 49.6251 26.4292 50.7406 25.979 51.7798C25.5288 52.819 24.8419 53.758 23.9643 54.534C23.0868 55.31 22.0388 55.905 20.8904 56.2793C19.7421 56.6537 18.5198 56.7987 17.3055 56.7046C16.0912 56.6105 14.9127 56.2795 13.849 55.7338C12.7853 55.1881 11.8608 54.4403 11.1374 53.5403C10.4141 52.6403 9.90846 51.6089 9.65444 50.5151C9.97428 50.5279 10.2941 50.5471 10.6139 50.579Z" fill="black"/>
<path opacity="0.1" d="M8.18163 73.7147C9.65674 73.777 11.1243 73.4883 12.442 72.8766C13.7596 72.2648 14.8826 71.3509 15.7018 70.2235C16.5211 69.0961 17.0089 67.7934 17.1178 66.442C17.2267 65.0906 16.9531 63.7363 16.3234 62.5105C15.6431 62.9286 15.0575 63.4638 14.5991 64.0865C14.0909 64.9826 13.5244 65.8498 12.9027 66.6834C11.5747 68.1254 9.29409 68.5976 7.22908 68.5082C5.16407 68.4189 3.16856 67.8702 1.1105 67.7107C0.825428 67.7107 0.533413 67.666 0.248344 67.6596C0.672894 69.3235 1.67718 70.8149 3.10886 71.9076C4.54054 73.0004 6.32151 73.6348 8.18163 73.7147Z" fill="black"/>
<path opacity="0.1" d="M28.9563 86.3993C30.4192 86.465 31.8761 86.1848 33.1872 85.5855C34.4983 84.9862 35.6197 84.0879 36.4439 82.9768C37.2681 81.8656 37.7675 80.5788 37.8942 79.2397C38.0209 77.9006 37.7707 76.554 37.1676 75.3291C36.4661 75.7575 35.8538 76.2977 35.3599 76.9242C34.6646 77.7856 34.2822 78.781 33.5035 79.5722C32.0573 81.0525 29.6307 81.5693 27.4405 81.5246C25.2503 81.48 23.2688 81.0014 21.1829 80.8546C21.699 82.4007 22.7226 83.763 24.1138 84.7554C25.5051 85.7477 27.1962 86.3218 28.9563 86.3993Z" fill="black"/>
<path opacity="0.1" d="M24.7287 101.655C25.7495 103.408 27.4556 104.74 29.5039 105.385C31.5522 106.03 33.7905 105.939 35.7685 105.13C37.7466 104.322 39.3176 102.856 40.1654 101.027C41.0131 99.1986 41.0748 97.1432 40.3379 95.2747C39.6314 95.6977 38.9986 96.216 38.4607 96.8124C37.6402 97.7248 37.0701 98.7265 36.1662 99.607C34.414 101.183 31.5912 101.827 29.0743 101.891C27.622 101.89 26.171 101.811 24.7287 101.655Z" fill="black"/>
</svg>
